<svg width="100" height="100" viewBox="0 0 100 100" fill="none" xmlns="http://www.w3.org/2000/svg">
<path d="M0 75V25H8.33333V16.6667H16.6667V8.33333H25V0H75V8.33333H83.3333V16.6667H91.6667V25H100V75H91.6667V83.3333H83.3333V91.6667H75V100H25V91.6667H16.6667V83.3333H8.33333V75H0Z" fill="#36424D"/>
<path d="M79.1668 33.3332H70.8335V16.6665H62.5002V24.9998H37.5002V16.6665H29.1668V33.3332H20.8335V58.3332H29.1668V66.6665H37.5002V74.9998H25.0002V83.3332H37.5002V99.9998H62.5002V66.6665H70.8335V58.3332H79.1668V33.3332Z" fill="#FCFCFC"/>
<path d="M24.9998 66.6665H16.6665V74.9998H24.9998V66.6665Z" fill="#FCFCFC"/>
</svg>
