<svg width="100" height="100" viewBox="0 0 100 100" fill="none" xmlns="http://www.w3.org/2000/svg">
<path d="M12.5 68.75V31.25H18.75V25H25V18.75H31.25V12.5H68.75V18.75H75V25H81.25V31.25H87.5V68.75H81.25V75H75V81.25H68.75V87.5H31.25V81.25H25V75H18.75V68.75H12.5Z" fill="#26659F"/>
<path d="M12.5 68.75V31.25H18.75V25H25V18.75H31.25V12.5H68.75V18.75H75V25H81.25V31.25H87.5V68.75H81.25V75H75V81.25H68.75V87.5H31.25V81.25H25V75H18.75V68.75H12.5Z" fill="#26659F"/>
<path d="M53.125 37.5H46.875V75H53.125V37.5Z" fill="#E6E5E5"/>
<path d="M53.125 25H46.875V31.25H53.125V25Z" fill="#E6E5E5"/>
</svg>
