<svg width="100" height="100" viewBox="0 0 100 100" fill="none" xmlns="http://www.w3.org/2000/svg">
<path fill-rule="evenodd" clip-rule="evenodd" d="M15.6156 53.1125V28.1125H21.8656V21.8625H28.1156V15.6125H34.3656V9.36255H59.3656V15.6125H71.8656V21.8625H78.1156V28.1125H84.3656V53.1125L81.2406 56.2375H18.7406L15.6156 53.1125Z" fill="#0A0A09"/>
<path fill-rule="evenodd" clip-rule="evenodd" d="M40.6156 90.6125V84.3625H28.1156V78.1125H21.8656V65.6125H15.6156V53.1125H21.8656V46.8625H34.3656V40.6125H46.8656V34.3625H65.6156V40.6125H71.8656V46.8625H78.1156V53.1125H84.3656V65.6125H78.1156V78.1125H71.8656V84.3625H59.3656V90.6125H40.6156Z" fill="#F9C292"/>
<path fill-rule="evenodd" clip-rule="evenodd" d="M34.3625 53.1156V59.3625H40.6157V53.1156H34.3625Z" fill="#706D67"/>
<path fill-rule="evenodd" clip-rule="evenodd" d="M59.3625 53.1156V59.3625H65.6157V53.1156H59.3625Z" fill="#706D67"/>
<path fill-rule="evenodd" clip-rule="evenodd" d="M40.6125 71.8656V78.1125H59.3657V71.8656H40.6125Z" fill="#F18F06"/>
</svg>
