<svg width="455" height="144" viewBox="0 0 455 144" fill="none" xmlns="http://www.w3.org/2000/svg">
<path d="M32.4301 78.7582H24.3228V85.918H32.4301V78.7582Z" fill="#BFE7FF"/>
<path d="M32.4301 57.2787H24.3228V64.4385H32.4301V57.2787Z" fill="#E1F5FF"/>
<path d="M32.4301 71.5985H24.3228V78.7582H32.4301V71.5985Z" fill="#BFE7FF"/>
<path d="M32.4301 93.0781H24.3228V100.238H32.4301V93.0781Z" fill="#BFE7FF"/>
<path d="M32.4301 64.4388H24.3228V71.5989H32.4301V64.4388Z" fill="#E1F5FF"/>
<path d="M32.4301 85.9183H24.3228V93.0784H32.4301V85.9183Z" fill="#BFE7FF"/>
<path d="M32.4301 114.557H24.3228V121.718H32.4301V114.557Z" fill="#A0D5EF"/>
<path d="M32.4301 121.718H24.3228V128.877H32.4301V121.718Z" fill="#A0D5EF"/>
<path d="M32.4301 107.398H24.3228V114.558H32.4301V107.398Z" fill="#A0D5EF"/>
<path d="M32.4301 100.238H24.3228V107.398H32.4301V100.238Z" fill="#BFE7FF"/>
<path d="M32.4301 128.877H24.3228V136.037H32.4301V128.877Z" fill="#A0D5EF"/>
<path d="M267.547 85.9183H259.44V93.0784H267.547V85.9183Z" fill="#BFE7FF"/>
<path d="M267.547 78.7582H259.44V85.918H267.547V78.7582Z" fill="#E1F5FF"/>
<path d="M267.547 71.5985H259.44V78.7582H267.547V71.5985Z" fill="#E1F5FF"/>
<path d="M267.547 128.877H259.44V136.037H267.547V128.877Z" fill="#A0D5EF"/>
<path d="M267.547 93.0781H259.44V100.238H267.547V93.0781Z" fill="#BFE7FF"/>
<path d="M267.547 107.398H259.44V114.558H267.547V107.398Z" fill="#BFE7FF"/>
<path d="M267.547 100.238H259.44V107.398H267.547V100.238Z" fill="#BFE7FF"/>
<path d="M267.547 114.557H259.44V121.718H267.547V114.557Z" fill="#BFE7FF"/>
<path d="M267.547 121.718H259.44V128.877H267.547V121.718Z" fill="#A0D5EF"/>
<path d="M275.654 114.557H267.547V121.718H275.654V114.557Z" fill="#BFE7FF"/>
<path d="M275.654 121.718H267.547V128.877H275.654V121.718Z" fill="#A0D5EF"/>
<path d="M275.654 128.877H267.547V136.037H275.654V128.877Z" fill="#A0D5EF"/>
<path d="M275.654 107.398H267.547V114.558H275.654V107.398Z" fill="#BFE7FF"/>
<path d="M275.654 71.5985H267.547V78.7582H275.654V71.5985Z" fill="#E1F5FF"/>
<path d="M275.654 85.9183H267.547V93.0784H275.654V85.9183Z" fill="#BFE7FF"/>
<path d="M32.4301 136.037H24.3228V143.197H32.4301V136.037Z" fill="#A0D5EF"/>
<path d="M275.654 100.238H267.547V107.398H275.654V100.238Z" fill="#BFE7FF"/>
<path d="M275.654 93.0781H267.547V100.238H275.654V93.0781Z" fill="#BFE7FF"/>
<path d="M275.654 136.037H267.547V143.197H275.654V136.037Z" fill="#A0D5EF"/>
<path d="M275.654 78.7582H267.547V85.918H275.654V78.7582Z" fill="#E1F5FF"/>
<path d="M40.5374 107.398H32.4301V114.558H40.5374V107.398Z" fill="#BFE7FF"/>
<path d="M259.44 136.037H251.332V143.197H259.44V136.037Z" fill="#A0D5EF"/>
<path d="M259.44 128.877H251.332V136.037H259.44V128.877Z" fill="#A0D5EF"/>
<path d="M259.44 93.0781H251.332V100.238H259.44V93.0781Z" fill="#BFE7FF"/>
<path d="M259.44 121.718H251.332V128.877H259.44V121.718Z" fill="#A0D5EF"/>
<path d="M259.44 107.398H251.332V114.558H259.44V107.398Z" fill="#BFE7FF"/>
<path d="M259.44 114.557H251.332V121.718H259.44V114.557Z" fill="#BFE7FF"/>
<path d="M259.44 100.238H251.332V107.398H259.44V100.238Z" fill="#BFE7FF"/>
<path d="M259.44 85.9183H251.332V93.0784H259.44V85.9183Z" fill="#BFE7FF"/>
<path d="M259.44 71.5985H251.332V78.7582H259.44V71.5985Z" fill="#E1F5FF"/>
<path d="M259.44 78.7582H251.332V85.918H259.44V78.7582Z" fill="#BFE7FF"/>
<path d="M48.6448 78.7582H40.5375V85.918H48.6448V78.7582Z" fill="#BFE7FF"/>
<path d="M48.6448 64.4388H40.5375V71.5989H48.6448V64.4388Z" fill="#BFE7FF"/>
<path d="M48.6448 71.5985H40.5375V78.7582H48.6448V71.5985Z" fill="#BFE7FF"/>
<path d="M48.6448 57.2787H40.5375V64.4385H48.6448V57.2787Z" fill="#E1F5FF"/>
<path d="M48.6448 50.119H40.5375V57.2791H48.6448V50.119Z" fill="#E1F5FF"/>
<path d="M48.6448 107.398H40.5375V114.558H48.6448V107.398Z" fill="#BFE7FF"/>
<path d="M48.6448 100.238H40.5375V107.398H48.6448V100.238Z" fill="#BFE7FF"/>
<path d="M48.6448 93.0781H40.5375V100.238H48.6448V93.0781Z" fill="#BFE7FF"/>
<path d="M48.6448 85.9183H40.5375V93.0784H48.6448V85.9183Z" fill="#BFE7FF"/>
<path d="M48.6448 114.557H40.5375V121.718H48.6448V114.557Z" fill="#A0D5EF"/>
<path d="M48.6448 121.718H40.5375V128.877H48.6448V121.718Z" fill="#A0D5EF"/>
<path d="M48.6448 136.037H40.5375V143.197H48.6448V136.037Z" fill="#82C6E0"/>
<path d="M48.6448 128.877H40.5375V136.037H48.6448V128.877Z" fill="#A0D5EF"/>
<path d="M40.5374 114.557H32.4301V121.718H40.5374V114.557Z" fill="#A0D5EF"/>
<path d="M40.5374 78.7582H32.4301V85.918H40.5374V78.7582Z" fill="#BFE7FF"/>
<path d="M40.5374 93.0781H32.4301V100.238H40.5374V93.0781Z" fill="#BFE7FF"/>
<path d="M40.5374 100.238H32.4301V107.398H40.5374V100.238Z" fill="#BFE7FF"/>
<path d="M40.5374 85.9183H32.4301V93.0784H40.5374V85.9183Z" fill="#E1F5FF"/>
<path d="M40.5374 128.877H32.4301V136.037H40.5374V128.877Z" fill="#A0D5EF"/>
<path d="M40.5374 136.037H32.4301V143.197H40.5374V136.037Z" fill="#82C6E0"/>
<path d="M40.5374 121.718H32.4301V128.877H40.5374V121.718Z" fill="#A0D5EF"/>
<path d="M40.5374 71.5985H32.4301V78.7582H40.5374V71.5985Z" fill="#BFE7FF"/>
<path d="M40.5374 57.2787H32.4301V64.4385H40.5374V57.2787Z" fill="#E1F5FF"/>
<path d="M40.5374 64.4388H32.4301V71.5989H40.5374V64.4388Z" fill="#E1F5FF"/>
<path d="M40.5374 50.119H32.4301V57.2791H40.5374V50.119Z" fill="#E1F5FF"/>
<path d="M291.869 121.718H283.762V128.877H291.869V121.718Z" fill="#A0D5EF"/>
<path d="M291.869 128.877H283.762V136.037H291.869V128.877Z" fill="#A0D5EF"/>
<path d="M291.869 114.557H283.762V121.718H291.869V114.557Z" fill="#BFE7FF"/>
<path d="M291.869 100.238H283.762V107.398H291.869V100.238Z" fill="#BFE7FF"/>
<path d="M291.869 93.0781H283.762V100.238H291.869V93.0781Z" fill="#BFE7FF"/>
<path d="M291.869 107.398H283.762V114.558H291.869V107.398Z" fill="#BFE7FF"/>
<path d="M291.869 85.9183H283.762V93.0784H291.869V85.9183Z" fill="#BFE7FF"/>
<path d="M291.869 78.7582H283.762V85.918H291.869V78.7582Z" fill="#BFE7FF"/>
<path d="M16.215 78.7582H8.10767V85.918H16.215V78.7582Z" fill="#E1F5FF"/>
<path d="M16.215 71.5985H8.10767V78.7582H16.215V71.5985Z" fill="#E1F5FF"/>
<path d="M16.215 85.9183H8.10767V93.0784H16.215V85.9183Z" fill="#E1F5FF"/>
<path d="M16.215 107.398H8.10767V114.558H16.215V107.398Z" fill="#A0D5EF"/>
<path d="M16.215 93.0781H8.10767V100.238H16.215V93.0781Z" fill="#BFE7FF"/>
<path d="M16.215 114.557H8.10767V121.718H16.215V114.557Z" fill="#A0D5EF"/>
<path d="M16.215 121.718H8.10767V128.877H16.215V121.718Z" fill="#A0D5EF"/>
<path d="M16.215 100.238H8.10767V107.398H16.215V100.238Z" fill="#A0D5EF"/>
<path d="M16.215 128.877H8.10767V136.037H16.215V128.877Z" fill="#82C6E0"/>
<path d="M8.10733 107.398H0V114.558H8.10733V107.398Z" fill="#A0D5EF"/>
<path d="M8.10733 100.238H0V107.398H8.10733V100.238Z" fill="#E1F5FF"/>
<path d="M8.10733 85.9183H0V93.0784H8.10733V85.9183Z" fill="#E1F5FF"/>
<path d="M8.10733 93.0781H0V100.238H8.10733V93.0781Z" fill="#E1F5FF"/>
<path d="M8.10733 114.557H0V121.718H8.10733V114.557Z" fill="#A0D5EF"/>
<path d="M24.3224 121.718H16.2151V128.877H24.3224V121.718Z" fill="#A0D5EF"/>
<path d="M24.3224 128.877H16.2151V136.037H24.3224V128.877Z" fill="#82C6E0"/>
<path d="M24.3224 114.557H16.2151V121.718H24.3224V114.557Z" fill="#A0D5EF"/>
<path d="M24.3224 64.4388H16.2151V71.5989H24.3224V64.4388Z" fill="#E1F5FF"/>
<path d="M24.3224 71.5985H16.2151V78.7582H24.3224V71.5985Z" fill="#E1F5FF"/>
<path d="M24.3224 57.2787H16.2151V64.4385H24.3224V57.2787Z" fill="#E1F5FF"/>
<path d="M24.3224 107.398H16.2151V114.558H24.3224V107.398Z" fill="#A0D5EF"/>
<path d="M24.3224 100.238H16.2151V107.398H24.3224V100.238Z" fill="#BFE7FF"/>
<path d="M24.3224 93.0781H16.2151V100.238H24.3224V93.0781Z" fill="#BFE7FF"/>
<path d="M24.3224 85.9183H16.2151V93.0784H24.3224V85.9183Z" fill="#BFE7FF"/>
<path d="M24.3224 78.7582H16.2151V85.918H24.3224V78.7582Z" fill="#E1F5FF"/>
<path d="M283.762 93.0781H275.655V100.238H283.762V93.0781Z" fill="#BFE7FF"/>
<path d="M283.762 85.9183H275.655V93.0784H283.762V85.9183Z" fill="#BFE7FF"/>
<path d="M283.762 78.7582H275.655V85.918H283.762V78.7582Z" fill="#E1F5FF"/>
<path d="M283.762 100.238H275.655V107.398H283.762V100.238Z" fill="#BFE7FF"/>
<path d="M283.762 121.718H275.655V128.877H283.762V121.718Z" fill="#A0D5EF"/>
<path d="M283.762 107.398H275.655V114.558H283.762V107.398Z" fill="#BFE7FF"/>
<path d="M283.762 114.557H275.655V121.718H283.762V114.557Z" fill="#BFE7FF"/>
<path d="M283.762 128.877H275.655V136.037H283.762V128.877Z" fill="#A0D5EF"/>
<path d="M267.547 136.037H259.44V143.197H267.547V136.037Z" fill="#A0D5EF"/>
<path d="M210.794 28.6395H202.687V35.7992H210.794V28.6395Z" fill="#82C6E0"/>
<path d="M210.794 64.4388H202.687V71.5989H210.794V64.4388Z" fill="#A0D5EF"/>
<path d="M210.794 71.5985H202.687V78.7582H210.794V71.5985Z" fill="#A0D5EF"/>
<path d="M210.794 85.9183H202.687V93.0784H210.794V85.9183Z" fill="#BFE7FF"/>
<path d="M210.794 93.0781H202.687V100.238H210.794V93.0781Z" fill="#BFE7FF"/>
<path d="M210.794 42.9593H202.687V50.119H210.794V42.9593Z" fill="#82C6E0"/>
<path d="M210.794 100.238H202.687V107.398H210.794V100.238Z" fill="#BFE7FF"/>
<path d="M210.794 35.7993H202.687V42.959H210.794V35.7993Z" fill="#82C6E0"/>
<path d="M210.794 50.119H202.687V57.2791H210.794V50.119Z" fill="#82C6E0"/>
<path d="M210.794 57.2787H202.687V64.4385H210.794V57.2787Z" fill="#82C6E0"/>
<path d="M210.794 78.7582H202.687V85.918H210.794V78.7582Z" fill="#A0D5EF"/>
<path d="M178.365 114.557H170.257V121.718H178.365V114.557Z" fill="#A0D5EF"/>
<path d="M145.935 114.557H137.827V121.718H145.935V114.557Z" fill="#A0D5EF"/>
<path d="M170.257 114.557H162.15V121.718H170.257V114.557Z" fill="#A0D5EF"/>
<path d="M154.042 114.557H145.935V121.718H154.042V114.557Z" fill="#A0D5EF"/>
<path d="M202.687 114.557H194.58V121.718H202.687V114.557Z" fill="#BFE7FF"/>
<path d="M210.794 107.398H202.687V114.558H210.794V107.398Z" fill="#BFE7FF"/>
<path d="M186.472 114.557H178.365V121.718H186.472V114.557Z" fill="#A0D5EF"/>
<path d="M210.794 114.557H202.687V121.718H210.794V114.557Z" fill="#BFE7FF"/>
<path d="M194.579 114.557H186.472V121.718H194.579V114.557Z" fill="#A0D5EF"/>
<path d="M162.15 114.557H154.042V121.718H162.15V114.557Z" fill="#A0D5EF"/>
<path d="M129.72 7.16003H121.612V14.3197H129.72V7.16003Z" fill="#E1F5FF"/>
<path d="M113.505 7.16003H105.397V14.3197H113.505V7.16003Z" fill="#E1F5FF"/>
<path d="M137.828 7.16003H129.72V14.3197H137.828V7.16003Z" fill="#E1F5FF"/>
<path d="M105.397 7.16003H97.2899V14.3197H105.397V7.16003Z" fill="#BFE7FF"/>
<path d="M89.1822 7.16003H81.0748V14.3197H89.1822V7.16003Z" fill="#E1F5FF"/>
<path d="M89.1822 14.3198H81.0748V21.4795H89.1822V14.3198Z" fill="#E1F5FF"/>
<path d="M145.935 7.16003H137.827V14.3197H145.935V7.16003Z" fill="#E1F5FF"/>
<path d="M97.2899 7.16003H89.1826V14.3197H97.2899V7.16003Z" fill="#E1F5FF"/>
<path d="M89.1822 21.4795H81.0748V28.6392H89.1822V21.4795Z" fill="#BFE7FF"/>
<path d="M154.042 7.16003H145.935V14.3197H154.042V7.16003Z" fill="#BFE7FF"/>
<path d="M162.15 7.16003H154.042V14.3197H162.15V7.16003Z" fill="#BFE7FF"/>
<path d="M186.472 7.16003H178.365V14.3197H186.472V7.16003Z" fill="#A0D5EF"/>
<path d="M170.257 7.16003H162.15V14.3197H170.257V7.16003Z" fill="#BFE7FF"/>
<path d="M178.365 7.16003H170.257V14.3197H178.365V7.16003Z" fill="#BFE7FF"/>
<path d="M121.612 7.16003H113.505V14.3197H121.612V7.16003Z" fill="#E1F5FF"/>
<path d="M145.935 14.3198H137.827V21.4795H145.935V14.3198Z" fill="#BFE7FF"/>
<path d="M137.828 114.557H129.72V121.718H137.828V114.557Z" fill="#A0D5EF"/>
<path d="M162.15 14.3198H154.042V21.4795H162.15V14.3198Z" fill="#BFE7FF"/>
<path d="M178.365 14.3198H170.257V21.4795H178.365V14.3198Z" fill="#BFE7FF"/>
<path d="M170.257 14.3198H162.15V21.4795H170.257V14.3198Z" fill="#BFE7FF"/>
<path d="M129.72 14.3198H121.612V21.4795H129.72V14.3198Z" fill="#E1F5FF"/>
<path d="M81.0749 128.877H72.9675V136.037H81.0749V128.877Z" fill="#A0D5EF"/>
<path d="M121.612 14.3198H113.505V21.4795H121.612V14.3198Z" fill="#E1F5FF"/>
<path d="M113.505 14.3198H105.397V21.4795H113.505V14.3198Z" fill="#E1F5FF"/>
<path d="M186.472 14.3198H178.365V21.4795H186.472V14.3198Z" fill="#BFE7FF"/>
<path d="M202.687 28.6395H194.58V35.7992H202.687V28.6395Z" fill="#A0D5EF"/>
<path d="M194.579 14.3198H186.472V21.4795H194.579V14.3198Z" fill="#A0D5EF"/>
<path d="M202.687 50.119H194.58V57.2791H202.687V50.119Z" fill="#A0D5EF"/>
<path d="M202.687 57.2787H194.58V64.4385H202.687V57.2787Z" fill="#A0D5EF"/>
<path d="M202.687 64.4388H194.58V71.5989H202.687V64.4388Z" fill="#A0D5EF"/>
<path d="M202.687 42.9593H194.58V50.119H202.687V42.9593Z" fill="#A0D5EF"/>
<path d="M202.687 21.4795H194.58V28.6392H202.687V21.4795Z" fill="#A0D5EF"/>
<path d="M105.397 14.3198H97.2899V21.4795H105.397V14.3198Z" fill="#E1F5FF"/>
<path d="M202.687 35.7993H194.58V42.959H202.687V35.7993Z" fill="#A0D5EF"/>
<path d="M154.042 14.3198H145.935V21.4795H154.042V14.3198Z" fill="#BFE7FF"/>
<path d="M97.2899 100.238H89.1826V107.398H97.2899V100.238Z" fill="#BFE7FF"/>
<path d="M97.2899 107.398H89.1826V114.558H97.2899V107.398Z" fill="#A0D5EF"/>
<path d="M97.2899 93.0781H89.1826V100.238H97.2899V93.0781Z" fill="#BFE7FF"/>
<path d="M97.2899 85.9183H89.1826V93.0784H97.2899V85.9183Z" fill="#BFE7FF"/>
<path d="M97.2899 114.557H89.1826V121.718H97.2899V114.557Z" fill="#A0D5EF"/>
<path d="M202.687 71.5985H194.58V78.7582H202.687V71.5985Z" fill="#A0D5EF"/>
<path d="M97.2899 14.3198H89.1826V21.4795H97.2899V14.3198Z" fill="#BFE7FF"/>
<path d="M113.505 114.557H105.397V121.718H113.505V114.557Z" fill="#A0D5EF"/>
<path d="M105.397 114.557H97.2899V121.718H105.397V114.557Z" fill="#A0D5EF"/>
<path d="M121.612 114.557H113.505V121.718H121.612V114.557Z" fill="#A0D5EF"/>
<path d="M97.2899 42.9593H89.1826V50.119H97.2899V42.9593Z" fill="#BFE7FF"/>
<path d="M97.2899 28.6395H89.1826V35.7992H97.2899V28.6395Z" fill="#E1F5FF"/>
<path d="M97.2899 35.7993H89.1826V42.959H97.2899V35.7993Z" fill="#E1F5FF"/>
<path d="M97.2899 21.4795H89.1826V28.6392H97.2899V21.4795Z" fill="#BFE7FF"/>
<path d="M97.2899 50.119H89.1826V57.2791H97.2899V50.119Z" fill="#BFE7FF"/>
<path d="M97.2899 78.7582H89.1826V85.918H97.2899V78.7582Z" fill="#BFE7FF"/>
<path d="M97.2899 71.5985H89.1826V78.7582H97.2899V71.5985Z" fill="#E1F5FF"/>
<path d="M97.2899 64.4388H89.1826V71.5989H97.2899V64.4388Z" fill="#E1F5FF"/>
<path d="M97.2899 57.2787H89.1826V64.4385H97.2899V57.2787Z" fill="#E1F5FF"/>
<path d="M129.72 114.557H121.612V121.718H129.72V114.557Z" fill="#A0D5EF"/>
<path d="M162.15 0H154.042V7.15971H162.15V0Z" fill="#E1F5FF"/>
<path d="M154.042 0H145.935V7.15971H154.042V0Z" fill="#E1F5FF"/>
<path d="M170.257 0H162.15V7.15971H170.257V0Z" fill="#BFE7FF"/>
<path d="M178.365 0H170.257V7.15971H178.365V0Z" fill="#A0D5EF"/>
<path d="M145.935 0H137.827V7.15971H145.935V0Z" fill="#E1F5FF"/>
<path d="M121.612 0H113.505V7.15971H121.612V0Z" fill="#E1F5FF"/>
<path d="M137.828 0H129.72V7.15971H137.828V0Z" fill="#E1F5FF"/>
<path d="M113.505 0H105.397V7.15971H113.505V0Z" fill="#E1F5FF"/>
<path d="M129.72 0H121.612V7.15971H129.72V0Z" fill="#E1F5FF"/>
<path d="M81.0749 85.9183H72.9675V93.0784H81.0749V85.9183Z" fill="#BFE7FF"/>
<path d="M81.0749 93.0781H72.9675V100.238H81.0749V93.0781Z" fill="#BFE7FF"/>
<path d="M81.0749 78.7582H72.9675V85.918H81.0749V78.7582Z" fill="#E1F5FF"/>
<path d="M81.0749 71.5985H72.9675V78.7582H81.0749V71.5985Z" fill="#E1F5FF"/>
<path d="M81.0749 121.718H72.9675V128.877H81.0749V121.718Z" fill="#A0D5EF"/>
<path d="M81.0749 114.557H72.9675V121.718H81.0749V114.557Z" fill="#BFE7FF"/>
<path d="M81.0749 64.4388H72.9675V71.5989H81.0749V64.4388Z" fill="#E1F5FF"/>
<path d="M81.0749 107.398H72.9675V114.558H81.0749V107.398Z" fill="#BFE7FF"/>
<path d="M81.0749 100.238H72.9675V107.398H81.0749V100.238Z" fill="#BFE7FF"/>
<path d="M81.0749 14.3198H72.9675V21.4795H81.0749V14.3198Z" fill="#E1F5FF"/>
<path d="M81.0749 57.2787H72.9675V64.4385H81.0749V57.2787Z" fill="#E1F5FF"/>
<path d="M81.0749 21.4795H72.9675V28.6392H81.0749V21.4795Z" fill="#E1F5FF"/>
<path d="M81.0749 50.119H72.9675V57.2791H81.0749V50.119Z" fill="#E1F5FF"/>
<path d="M81.0749 28.6395H72.9675V35.7992H81.0749V28.6395Z" fill="#E1F5FF"/>
<path d="M81.0749 42.9593H72.9675V50.119H81.0749V42.9593Z" fill="#E1F5FF"/>
<path d="M81.0749 35.7993H72.9675V42.959H81.0749V35.7993Z" fill="#E1F5FF"/>
<path d="M218.902 78.7582H210.795V85.918H218.902V78.7582Z" fill="#A0D5EF"/>
<path d="M89.1822 121.718H81.0748V128.877H89.1822V121.718Z" fill="#A0D5EF"/>
<path d="M97.2899 121.718H89.1826V128.877H97.2899V121.718Z" fill="#A0D5EF"/>
<path d="M89.1822 114.557H81.0748V121.718H89.1822V114.557Z" fill="#A0D5EF"/>
<path d="M89.1822 107.398H81.0748V114.558H89.1822V107.398Z" fill="#BFE7FF"/>
<path d="M113.505 121.718H105.397V128.877H113.505V121.718Z" fill="#A0D5EF"/>
<path d="M129.72 121.718H121.612V128.877H129.72V121.718Z" fill="#A0D5EF"/>
<path d="M105.397 121.718H97.2899V128.877H105.397V121.718Z" fill="#A0D5EF"/>
<path d="M121.612 121.718H113.505V128.877H121.612V121.718Z" fill="#A0D5EF"/>
<path d="M89.1822 100.238H81.0748V107.398H89.1822V100.238Z" fill="#BFE7FF"/>
<path d="M89.1822 64.4388H81.0748V71.5989H89.1822V64.4388Z" fill="#E1F5FF"/>
<path d="M89.1822 57.2787H81.0748V64.4385H89.1822V57.2787Z" fill="#E1F5FF"/>
<path d="M89.1822 42.9593H81.0748V50.119H89.1822V42.9593Z" fill="#E1F5FF"/>
<path d="M89.1822 50.119H81.0748V57.2791H89.1822V50.119Z" fill="#E1F5FF"/>
<path d="M89.1822 93.0781H81.0748V100.238H89.1822V93.0781Z" fill="#BFE7FF"/>
<path d="M89.1822 35.7993H81.0748V42.959H89.1822V35.7993Z" fill="#E1F5FF"/>
<path d="M89.1822 78.7582H81.0748V85.918H89.1822V78.7582Z" fill="#E1F5FF"/>
<path d="M137.828 121.718H129.72V128.877H137.828V121.718Z" fill="#A0D5EF"/>
<path d="M89.1822 85.9183H81.0748V93.0784H89.1822V85.9183Z" fill="#BFE7FF"/>
<path d="M89.1822 71.5985H81.0748V78.7582H89.1822V71.5985Z" fill="#E1F5FF"/>
<path d="M89.1822 28.6395H81.0748V35.7992H89.1822V28.6395Z" fill="#E1F5FF"/>
<path d="M218.902 100.238H210.795V107.398H218.902V100.238Z" fill="#BFE7FF"/>
<path d="M218.902 93.0781H210.795V100.238H218.902V93.0781Z" fill="#BFE7FF"/>
<path d="M218.902 107.398H210.795V114.558H218.902V107.398Z" fill="#BFE7FF"/>
<path d="M218.902 85.9183H210.795V93.0784H218.902V85.9183Z" fill="#BFE7FF"/>
<path d="M145.935 121.718H137.827V128.877H145.935V121.718Z" fill="#A0D5EF"/>
<path d="M218.902 57.2787H210.795V64.4385H218.902V57.2787Z" fill="#82C6E0"/>
<path d="M218.902 50.119H210.795V57.2791H218.902V50.119Z" fill="#82C6E0"/>
<path d="M218.902 64.4388H210.795V71.5989H218.902V64.4388Z" fill="#82C6E0"/>
<path d="M218.902 71.5985H210.795V78.7582H218.902V71.5985Z" fill="#A0D5EF"/>
<path d="M218.902 114.557H210.795V121.718H218.902V114.557Z" fill="#A0D5EF"/>
<path d="M170.257 121.718H162.15V128.877H170.257V121.718Z" fill="#A0D5EF"/>
<path d="M162.15 121.718H154.042V128.877H162.15V121.718Z" fill="#A0D5EF"/>
<path d="M178.365 121.718H170.257V128.877H178.365V121.718Z" fill="#A0D5EF"/>
<path d="M154.042 121.718H145.935V128.877H154.042V121.718Z" fill="#A0D5EF"/>
<path d="M202.687 121.718H194.58V128.877H202.687V121.718Z" fill="#A0D5EF"/>
<path d="M218.902 121.718H210.795V128.877H218.902V121.718Z" fill="#A0D5EF"/>
<path d="M210.794 121.718H202.687V128.877H210.794V121.718Z" fill="#A0D5EF"/>
<path d="M194.579 121.718H186.472V128.877H194.579V121.718Z" fill="#A0D5EF"/>
<path d="M186.472 121.718H178.365V128.877H186.472V121.718Z" fill="#A0D5EF"/>
<path d="M137.828 14.3198H129.72V21.4795H137.828V14.3198Z" fill="#BFE7FF"/>
<path d="M178.365 35.7993H170.257V42.959H178.365V35.7993Z" fill="#BFE7FF"/>
<path d="M137.828 35.7993H129.72V42.959H137.828V35.7993Z" fill="#BFE7FF"/>
<path d="M145.935 35.7993H137.827V42.959H145.935V35.7993Z" fill="#BFE7FF"/>
<path d="M170.257 35.7993H162.15V42.959H170.257V35.7993Z" fill="#BFE7FF"/>
<path d="M162.15 35.7993H154.042V42.959H162.15V35.7993Z" fill="#BFE7FF"/>
<path d="M154.042 35.7993H145.935V42.959H154.042V35.7993Z" fill="#BFE7FF"/>
<path d="M129.72 35.7993H121.612V42.959H129.72V35.7993Z" fill="#BFE7FF"/>
<path d="M121.612 42.9593H113.505V50.119H121.612V42.9593Z" fill="#BFE7FF"/>
<path d="M121.612 50.119H113.505V57.2791H121.612V50.119Z" fill="#BFE7FF"/>
<path d="M121.612 35.7993H113.505V42.959H121.612V35.7993Z" fill="#BFE7FF"/>
<path d="M121.612 57.2787H113.505V64.4385H121.612V57.2787Z" fill="#BFE7FF"/>
<path d="M170.257 85.9183H162.15V93.0784H170.257V85.9183Z" fill="#BFE7FF"/>
<path d="M186.472 42.9593H178.365V50.119H186.472V42.9593Z" fill="#BFE7FF"/>
<path d="M162.15 85.9183H154.042V93.0784H162.15V85.9183Z" fill="#BFE7FF"/>
<path d="M178.365 78.7582H170.257V85.918H178.365V78.7582Z" fill="#BFE7FF"/>
<path d="M178.365 57.2787H170.257V64.4385H178.365V57.2787Z" fill="#BFE7FF"/>
<path d="M178.365 71.5985H170.257V78.7582H178.365V71.5985Z" fill="#BFE7FF"/>
<path d="M178.365 42.9593H170.257V50.119H178.365V42.9593Z" fill="#BFE7FF"/>
<path d="M178.365 50.119H170.257V57.2791H178.365V50.119Z" fill="#BFE7FF"/>
<path d="M178.365 64.4388H170.257V71.5989H178.365V64.4388Z" fill="#BFE7FF"/>
<path d="M121.612 78.7582H113.505V85.918H121.612V78.7582Z" fill="#BFE7FF"/>
<path d="M186.472 85.9183H178.365V93.0784H186.472V85.9183Z" fill="#BFE7FF"/>
<path d="M186.472 93.0781H178.365V100.238H186.472V93.0781Z" fill="#BFE7FF"/>
<path d="M178.365 93.0781H170.257V100.238H178.365V93.0781Z" fill="#BFE7FF"/>
<path d="M186.472 78.7582H178.365V85.918H186.472V78.7582Z" fill="#BFE7FF"/>
<path d="M186.472 64.4388H178.365V71.5989H186.472V64.4388Z" fill="#BFE7FF"/>
<path d="M186.472 71.5985H178.365V78.7582H186.472V71.5985Z" fill="#BFE7FF"/>
<path d="M186.472 50.119H178.365V57.2791H186.472V50.119Z" fill="#BFE7FF"/>
<path d="M186.472 57.2787H178.365V64.4385H186.472V57.2787Z" fill="#BFE7FF"/>
<path d="M202.687 78.7582H194.58V85.918H202.687V78.7582Z" fill="#BFE7FF"/>
<path d="M121.612 85.9183H113.505V93.0784H121.612V85.9183Z" fill="#BFE7FF"/>
<path d="M121.612 64.4388H113.505V71.5989H121.612V64.4388Z" fill="#BFE7FF"/>
<path d="M121.612 93.0781H113.505V100.238H121.612V93.0781Z" fill="#BFE7FF"/>
<path d="M154.042 85.9183H145.935V93.0784H154.042V85.9183Z" fill="#BFE7FF"/>
<path d="M162.15 93.0781H154.042V100.238H162.15V93.0781Z" fill="#BFE7FF"/>
<path d="M121.612 71.5985H113.505V78.7582H121.612V71.5985Z" fill="#BFE7FF"/>
<path d="M145.935 93.0781H137.827V100.238H145.935V93.0781Z" fill="#BFE7FF"/>
<path d="M129.72 93.0781H121.612V100.238H129.72V93.0781Z" fill="#BFE7FF"/>
<path d="M154.042 93.0781H145.935V100.238H154.042V93.0781Z" fill="#BFE7FF"/>
<path d="M137.828 93.0781H129.72V100.238H137.828V93.0781Z" fill="#BFE7FF"/>
<path d="M178.365 85.9183H170.257V93.0784H178.365V85.9183Z" fill="#BFE7FF"/>
<path d="M137.828 50.119H129.72V57.2791H137.828V50.119Z" fill="#BFE7FF"/>
<path d="M145.935 50.119H137.827V57.2791H145.935V50.119Z" fill="#BFE7FF"/>
<path d="M137.828 57.2787H129.72V64.4385H137.828V57.2787Z" fill="#BFE7FF"/>
<path d="M154.042 50.119H145.935V57.2791H154.042V50.119Z" fill="#BFE7FF"/>
<path d="M145.935 78.7582H137.827V85.918H145.935V78.7582Z" fill="#BFE7FF"/>
<path d="M137.828 78.7582H129.72V85.918H137.828V78.7582Z" fill="#BFE7FF"/>
<path d="M162.15 50.119H154.042V57.2791H162.15V50.119Z" fill="#BFE7FF"/>
<path d="M154.042 78.7582H145.935V85.918H154.042V78.7582Z" fill="#BFE7FF"/>
<path d="M137.828 71.5985H129.72V78.7582H137.828V71.5985Z" fill="#BFE7FF"/>
<path d="M137.828 64.4388H129.72V71.5989H137.828V64.4388Z" fill="#BFE7FF"/>
<path d="M145.935 57.2787H137.827V64.4385H145.935V57.2787Z" fill="#BFE7FF"/>
<path d="M162.15 57.2787H154.042V64.4385H162.15V57.2787Z" fill="#BFE7FF"/>
<path d="M145.935 64.4388H137.827V71.5989H145.935V64.4388Z" fill="#BFE7FF"/>
<path d="M154.042 64.4388H145.935V71.5989H154.042V64.4388Z" fill="#BFE7FF"/>
<path d="M154.042 57.2787H145.935V64.4385H154.042V57.2787Z" fill="#BFE7FF"/>
<path d="M162.15 71.5985H154.042V78.7582H162.15V71.5985Z" fill="#BFE7FF"/>
<path d="M145.935 71.5985H137.827V78.7582H145.935V71.5985Z" fill="#BFE7FF"/>
<path d="M162.15 64.4388H154.042V71.5989H162.15V64.4388Z" fill="#BFE7FF"/>
<path d="M154.042 71.5985H145.935V78.7582H154.042V71.5985Z" fill="#BFE7FF"/>
<path d="M129.72 85.9183H121.612V93.0784H129.72V85.9183Z" fill="#BFE7FF"/>
<path d="M129.72 50.119H121.612V57.2791H129.72V50.119Z" fill="#BFE7FF"/>
<path d="M129.72 57.2787H121.612V64.4385H129.72V57.2787Z" fill="#BFE7FF"/>
<path d="M129.72 42.9593H121.612V50.119H129.72V42.9593Z" fill="#BFE7FF"/>
<path d="M137.828 42.9593H129.72V50.119H137.828V42.9593Z" fill="#BFE7FF"/>
<path d="M129.72 64.4388H121.612V71.5989H129.72V64.4388Z" fill="#BFE7FF"/>
<path d="M129.72 71.5985H121.612V78.7582H129.72V71.5985Z" fill="#BFE7FF"/>
<path d="M145.935 85.9183H137.827V93.0784H145.935V85.9183Z" fill="#BFE7FF"/>
<path d="M137.828 85.9183H129.72V93.0784H137.828V85.9183Z" fill="#BFE7FF"/>
<path d="M129.72 78.7582H121.612V85.918H129.72V78.7582Z" fill="#BFE7FF"/>
<path d="M170.257 64.4388H162.15V71.5989H170.257V64.4388Z" fill="#BFE7FF"/>
<path d="M162.15 78.7582H154.042V85.918H162.15V78.7582Z" fill="#BFE7FF"/>
<path d="M170.257 71.5985H162.15V78.7582H170.257V71.5985Z" fill="#BFE7FF"/>
<path d="M170.257 57.2787H162.15V64.4385H170.257V57.2787Z" fill="#BFE7FF"/>
<path d="M170.257 78.7582H162.15V85.918H170.257V78.7582Z" fill="#BFE7FF"/>
<path d="M154.042 42.9593H145.935V50.119H154.042V42.9593Z" fill="#BFE7FF"/>
<path d="M145.935 42.9593H137.827V50.119H145.935V42.9593Z" fill="#BFE7FF"/>
<path d="M162.15 42.9593H154.042V50.119H162.15V42.9593Z" fill="#BFE7FF"/>
<path d="M170.257 42.9593H162.15V50.119H170.257V42.9593Z" fill="#BFE7FF"/>
<path d="M170.257 50.119H162.15V57.2791H170.257V50.119Z" fill="#BFE7FF"/>
<path d="M170.257 93.0781H162.15V100.238H170.257V93.0781Z" fill="#BFE7FF"/>
<path d="M105.397 28.6395H97.2899V35.7992H105.397V28.6395Z" fill="#BFE7FF"/>
<path d="M105.397 42.9593H97.2899V50.119H105.397V42.9593Z" fill="#BFE7FF"/>
<path d="M105.397 35.7993H97.2899V42.959H105.397V35.7993Z" fill="#BFE7FF"/>
<path d="M105.397 21.4795H97.2899V28.6392H105.397V21.4795Z" fill="#BFE7FF"/>
<path d="M113.505 21.4795H105.397V28.6392H113.505V21.4795Z" fill="#E1F5FF"/>
<path d="M105.397 50.119H97.2899V57.2791H105.397V50.119Z" fill="#BFE7FF"/>
<path d="M121.612 21.4795H113.505V28.6392H121.612V21.4795Z" fill="#BFE7FF"/>
<path d="M105.397 71.5985H97.2899V78.7582H105.397V71.5985Z" fill="#BFE7FF"/>
<path d="M105.397 64.4388H97.2899V71.5989H105.397V64.4388Z" fill="#BFE7FF"/>
<path d="M105.397 57.2787H97.2899V64.4385H105.397V57.2787Z" fill="#BFE7FF"/>
<path d="M129.72 21.4795H121.612V28.6392H129.72V21.4795Z" fill="#BFE7FF"/>
<path d="M170.257 21.4795H162.15V28.6392H170.257V21.4795Z" fill="#BFE7FF"/>
<path d="M178.365 21.4795H170.257V28.6392H178.365V21.4795Z" fill="#BFE7FF"/>
<path d="M186.472 21.4795H178.365V28.6392H186.472V21.4795Z" fill="#BFE7FF"/>
<path d="M194.579 21.4795H186.472V28.6392H194.579V21.4795Z" fill="#A0D5EF"/>
<path d="M145.935 21.4795H137.827V28.6392H145.935V21.4795Z" fill="#BFE7FF"/>
<path d="M137.828 21.4795H129.72V28.6392H137.828V21.4795Z" fill="#BFE7FF"/>
<path d="M105.397 78.7582H97.2899V85.918H105.397V78.7582Z" fill="#BFE7FF"/>
<path d="M154.042 21.4795H145.935V28.6392H154.042V21.4795Z" fill="#BFE7FF"/>
<path d="M162.15 21.4795H154.042V28.6392H162.15V21.4795Z" fill="#BFE7FF"/>
<path d="M178.365 107.398H170.257V114.558H178.365V107.398Z" fill="#A0D5EF"/>
<path d="M194.579 28.6395H186.472V35.7992H194.579V28.6395Z" fill="#BFE7FF"/>
<path d="M194.579 107.398H186.472V114.558H194.579V107.398Z" fill="#BFE7FF"/>
<path d="M105.397 85.9183H97.2899V93.0784H105.397V85.9183Z" fill="#BFE7FF"/>
<path d="M170.257 107.398H162.15V114.558H170.257V107.398Z" fill="#A0D5EF"/>
<path d="M202.687 93.0781H194.58V100.238H202.687V93.0781Z" fill="#BFE7FF"/>
<path d="M162.15 107.398H154.042V114.558H162.15V107.398Z" fill="#A0D5EF"/>
<path d="M202.687 85.9183H194.58V93.0784H202.687V85.9183Z" fill="#BFE7FF"/>
<path d="M202.687 100.238H194.58V107.398H202.687V100.238Z" fill="#BFE7FF"/>
<path d="M202.687 107.398H194.58V114.558H202.687V107.398Z" fill="#BFE7FF"/>
<path d="M186.472 107.398H178.365V114.558H186.472V107.398Z" fill="#BFE7FF"/>
<path d="M105.397 100.238H97.2899V107.398H105.397V100.238Z" fill="#BFE7FF"/>
<path d="M105.397 107.398H97.2899V114.558H105.397V107.398Z" fill="#A0D5EF"/>
<path d="M154.042 107.398H145.935V114.558H154.042V107.398Z" fill="#A0D5EF"/>
<path d="M113.505 107.398H105.397V114.558H113.505V107.398Z" fill="#A0D5EF"/>
<path d="M105.397 93.0781H97.2899V100.238H105.397V93.0781Z" fill="#BFE7FF"/>
<path d="M145.935 107.398H137.827V114.558H145.935V107.398Z" fill="#A0D5EF"/>
<path d="M137.828 107.398H129.72V114.558H137.828V107.398Z" fill="#A0D5EF"/>
<path d="M129.72 107.398H121.612V114.558H129.72V107.398Z" fill="#A0D5EF"/>
<path d="M121.612 107.398H113.505V114.558H121.612V107.398Z" fill="#A0D5EF"/>
<path d="M113.505 50.119H105.397V57.2791H113.505V50.119Z" fill="#BFE7FF"/>
<path d="M113.505 42.9593H105.397V50.119H113.505V42.9593Z" fill="#BFE7FF"/>
<path d="M186.472 35.7993H178.365V42.959H186.472V35.7993Z" fill="#BFE7FF"/>
<path d="M113.505 35.7993H105.397V42.959H113.505V35.7993Z" fill="#E1F5FF"/>
<path d="M113.505 57.2787H105.397V64.4385H113.505V57.2787Z" fill="#BFE7FF"/>
<path d="M113.505 28.6395H105.397V35.7992H113.505V28.6395Z" fill="#BFE7FF"/>
<path d="M194.579 35.7993H186.472V42.959H194.579V35.7993Z" fill="#BFE7FF"/>
<path d="M113.505 78.7582H105.397V85.918H113.505V78.7582Z" fill="#BFE7FF"/>
<path d="M113.505 71.5985H105.397V78.7582H113.505V71.5985Z" fill="#BFE7FF"/>
<path d="M113.505 64.4388H105.397V71.5989H113.505V64.4388Z" fill="#BFE7FF"/>
<path d="M186.472 28.6395H178.365V35.7992H186.472V28.6395Z" fill="#BFE7FF"/>
<path d="M121.612 28.6395H113.505V35.7992H121.612V28.6395Z" fill="#BFE7FF"/>
<path d="M162.15 28.6395H154.042V35.7992H162.15V28.6395Z" fill="#BFE7FF"/>
<path d="M178.365 28.6395H170.257V35.7992H178.365V28.6395Z" fill="#BFE7FF"/>
<path d="M113.505 93.0781H105.397V100.238H113.505V93.0781Z" fill="#BFE7FF"/>
<path d="M170.257 28.6395H162.15V35.7992H170.257V28.6395Z" fill="#BFE7FF"/>
<path d="M137.828 28.6395H129.72V35.7992H137.828V28.6395Z" fill="#BFE7FF"/>
<path d="M129.72 28.6395H121.612V35.7992H129.72V28.6395Z" fill="#BFE7FF"/>
<path d="M154.042 28.6395H145.935V35.7992H154.042V28.6395Z" fill="#BFE7FF"/>
<path d="M145.935 28.6395H137.827V35.7992H145.935V28.6395Z" fill="#BFE7FF"/>
<path d="M113.505 85.9183H105.397V93.0784H113.505V85.9183Z" fill="#BFE7FF"/>
<path d="M194.579 71.5985H186.472V78.7582H194.579V71.5985Z" fill="#BFE7FF"/>
<path d="M194.579 85.9183H186.472V93.0784H194.579V85.9183Z" fill="#BFE7FF"/>
<path d="M113.505 100.238H105.397V107.398H113.505V100.238Z" fill="#BFE7FF"/>
<path d="M194.579 93.0781H186.472V100.238H194.579V93.0781Z" fill="#BFE7FF"/>
<path d="M194.579 64.4388H186.472V71.5989H194.579V64.4388Z" fill="#BFE7FF"/>
<path d="M194.579 42.9593H186.472V50.119H194.579V42.9593Z" fill="#BFE7FF"/>
<path d="M194.579 100.238H186.472V107.398H194.579V100.238Z" fill="#BFE7FF"/>
<path d="M194.579 50.119H186.472V57.2791H194.579V50.119Z" fill="#BFE7FF"/>
<path d="M194.579 57.2787H186.472V64.4385H194.579V57.2787Z" fill="#BFE7FF"/>
<path d="M194.579 78.7582H186.472V85.918H194.579V78.7582Z" fill="#BFE7FF"/>
<path d="M129.72 100.238H121.612V107.398H129.72V100.238Z" fill="#A0D5EF"/>
<path d="M137.828 100.238H129.72V107.398H137.828V100.238Z" fill="#A0D5EF"/>
<path d="M121.612 100.238H113.505V107.398H121.612V100.238Z" fill="#A0D5EF"/>
<path d="M145.935 100.238H137.827V107.398H145.935V100.238Z" fill="#A0D5EF"/>
<path d="M162.15 100.238H154.042V107.398H162.15V100.238Z" fill="#A0D5EF"/>
<path d="M178.365 100.238H170.257V107.398H178.365V100.238Z" fill="#BFE7FF"/>
<path d="M154.042 100.238H145.935V107.398H154.042V100.238Z" fill="#A0D5EF"/>
<path d="M170.257 100.238H162.15V107.398H170.257V100.238Z" fill="#BFE7FF"/>
<path d="M186.472 100.238H178.365V107.398H186.472V100.238Z" fill="#BFE7FF"/>
<path d="M56.7525 57.2787H48.6451V64.4385H56.7525V57.2787Z" fill="#E1F5FF"/>
<path d="M56.7525 50.119H48.6451V57.2791H56.7525V50.119Z" fill="#E1F5FF"/>
<path d="M56.7525 93.0781H48.6451V100.238H56.7525V93.0781Z" fill="#BFE7FF"/>
<path d="M56.7525 85.9183H48.6451V93.0784H56.7525V85.9183Z" fill="#BFE7FF"/>
<path d="M56.7525 78.7582H48.6451V85.918H56.7525V78.7582Z" fill="#BFE7FF"/>
<path d="M56.7525 71.5985H48.6451V78.7582H56.7525V71.5985Z" fill="#BFE7FF"/>
<path d="M56.7525 64.4388H48.6451V71.5989H56.7525V64.4388Z" fill="#BFE7FF"/>
<path d="M243.225 136.037H235.117V143.197H243.225V136.037Z" fill="#82C6E0"/>
<path d="M243.225 93.0781H235.117V100.238H243.225V93.0781Z" fill="#BFE7FF"/>
<path d="M243.225 100.238H235.117V107.398H243.225V100.238Z" fill="#BFE7FF"/>
<path d="M243.225 107.398H235.117V114.558H243.225V107.398Z" fill="#BFE7FF"/>
<path d="M243.225 114.557H235.117V121.718H243.225V114.557Z" fill="#BFE7FF"/>
<path d="M243.225 121.718H235.117V128.877H243.225V121.718Z" fill="#A0D5EF"/>
<path d="M243.225 128.877H235.117V136.037H243.225V128.877Z" fill="#A0D5EF"/>
<path d="M243.225 71.5985H235.117V78.7582H243.225V71.5985Z" fill="#A0D5EF"/>
<path d="M243.225 78.7582H235.117V85.918H243.225V78.7582Z" fill="#A0D5EF"/>
<path d="M243.225 85.9183H235.117V93.0784H243.225V85.9183Z" fill="#A0D5EF"/>
<path d="M56.7525 100.238H48.6451V107.398H56.7525V100.238Z" fill="#BFE7FF"/>
<path d="M251.332 71.5985H243.224V78.7582H251.332V71.5985Z" fill="#A0D5EF"/>
<path d="M251.332 78.7582H243.224V85.918H251.332V78.7582Z" fill="#A0D5EF"/>
<path d="M251.332 85.9183H243.224V93.0784H251.332V85.9183Z" fill="#A0D5EF"/>
<path d="M56.7525 114.557H48.6451V121.718H56.7525V114.557Z" fill="#BFE7FF"/>
<path d="M56.7525 121.718H48.6451V128.877H56.7525V121.718Z" fill="#A0D5EF"/>
<path d="M56.7525 107.398H48.6451V114.558H56.7525V107.398Z" fill="#BFE7FF"/>
<path d="M56.7525 128.877H48.6451V136.037H56.7525V128.877Z" fill="#A0D5EF"/>
<path d="M56.7525 136.037H48.6451V143.197H56.7525V136.037Z" fill="#82C6E0"/>
<path d="M251.332 93.0781H243.224V100.238H251.332V93.0781Z" fill="#A0D5EF"/>
<path d="M251.332 128.877H243.224V136.037H251.332V128.877Z" fill="#A0D5EF"/>
<path d="M251.332 136.037H243.224V143.197H251.332V136.037Z" fill="#82C6E0"/>
<path d="M251.332 121.718H243.224V128.877H251.332V121.718Z" fill="#A0D5EF"/>
<path d="M251.332 107.398H243.224V114.558H251.332V107.398Z" fill="#BFE7FF"/>
<path d="M251.332 100.238H243.224V107.398H251.332V100.238Z" fill="#BFE7FF"/>
<path d="M251.332 114.557H243.224V121.718H251.332V114.557Z" fill="#BFE7FF"/>
<path d="M113.505 128.877H105.397V136.037H113.505V128.877Z" fill="#A0D5EF"/>
<path d="M72.9672 21.4795H64.8599V28.6392H72.9672V21.4795Z" fill="#E1F5FF"/>
<path d="M126.685 6.8537H118.578V14.0134H126.685V6.8537Z" fill="#E1F5FF"/>
<path d="M72.9672 28.6395H64.8599V35.7992H72.9672V28.6395Z" fill="#E1F5FF"/>
<path d="M151.007 6.8537H142.9V14.0134H151.007V6.8537Z" fill="#BFE7FF"/>
<path d="M134.792 6.8537H126.685V14.0134H134.792V6.8537Z" fill="#E1F5FF"/>
<path d="M142.9 6.8537H134.793V14.0134H142.9V6.8537Z" fill="#E1F5FF"/>
<path d="M72.9672 121.718H64.8599V128.877H72.9672V121.718Z" fill="#A0D5EF"/>
<path d="M72.9672 128.877H64.8599V136.037H72.9672V128.877Z" fill="#A0D5EF"/>
<path d="M72.9672 136.037H64.8599V143.197H72.9672V136.037Z" fill="#82C6E0"/>
<path d="M72.9672 114.557H64.8599V121.718H72.9672V114.557Z" fill="#BFE7FF"/>
<path d="M89.1822 136.037H81.0748V143.197H89.1822V136.037Z" fill="#82C6E0"/>
<path d="M105.397 136.037H97.2899V143.197H105.397V136.037Z" fill="#82C6E0"/>
<path d="M97.2899 136.037H89.1826V143.197H97.2899V136.037Z" fill="#82C6E0"/>
<path d="M81.0749 136.037H72.9675V143.197H81.0749V136.037Z" fill="#82C6E0"/>
<path d="M72.9672 107.398H64.8599V114.558H72.9672V107.398Z" fill="#BFE7FF"/>
<path d="M72.9672 78.7582H64.8599V85.918H72.9672V78.7582Z" fill="#E1F5FF"/>
<path d="M72.9672 64.4388H64.8599V71.5989H72.9672V64.4388Z" fill="#E1F5FF"/>
<path d="M72.9672 50.119H64.8599V57.2791H72.9672V50.119Z" fill="#E1F5FF"/>
<path d="M72.9672 57.2787H64.8599V64.4385H72.9672V57.2787Z" fill="#E1F5FF"/>
<path d="M72.9672 42.9593H64.8599V50.119H72.9672V42.9593Z" fill="#E1F5FF"/>
<path d="M72.9672 93.0781H64.8599V100.238H72.9672V93.0781Z" fill="#BFE7FF"/>
<path d="M72.9672 71.5985H64.8599V78.7582H72.9672V71.5985Z" fill="#E1F5FF"/>
<path d="M72.9672 85.9183H64.8599V93.0784H72.9672V85.9183Z" fill="#BFE7FF"/>
<path d="M72.9672 100.238H64.8599V107.398H72.9672V100.238Z" fill="#A0D5EF"/>
<path d="M72.9672 35.7993H64.8599V42.959H72.9672V35.7993Z" fill="#E1F5FF"/>
<path d="M227.009 100.238H218.902V107.398H227.009V100.238Z" fill="#BFE7FF"/>
<path d="M194.579 128.877H186.472V136.037H194.579V128.877Z" fill="#A0D5EF"/>
<path d="M170.257 128.877H162.15V136.037H170.257V128.877Z" fill="#82C6E0"/>
<path d="M178.365 128.877H170.257V136.037H178.365V128.877Z" fill="#82C6E0"/>
<path d="M202.687 128.877H194.58V136.037H202.687V128.877Z" fill="#A0D5EF"/>
<path d="M186.472 128.877H178.365V136.037H186.472V128.877Z" fill="#A0D5EF"/>
<path d="M227.009 121.718H218.902V128.877H227.009V121.718Z" fill="#A0D5EF"/>
<path d="M227.009 128.877H218.902V136.037H227.009V128.877Z" fill="#A0D5EF"/>
<path d="M210.794 128.877H202.687V136.037H210.794V128.877Z" fill="#A0D5EF"/>
<path d="M218.902 128.877H210.795V136.037H218.902V128.877Z" fill="#A0D5EF"/>
<path d="M137.828 128.877H129.72V136.037H137.828V128.877Z" fill="#82C6E0"/>
<path d="M89.1822 128.877H81.0748V136.037H89.1822V128.877Z" fill="#A0D5EF"/>
<path d="M105.397 128.877H97.2899V136.037H105.397V128.877Z" fill="#A0D5EF"/>
<path d="M121.612 128.877H113.505V136.037H121.612V128.877Z" fill="#A0D5EF"/>
<path d="M97.2899 128.877H89.1826V136.037H97.2899V128.877Z" fill="#A0D5EF"/>
<path d="M162.15 128.877H154.042V136.037H162.15V128.877Z" fill="#82C6E0"/>
<path d="M129.72 128.877H121.612V136.037H129.72V128.877Z" fill="#82C6E0"/>
<path d="M145.935 128.877H137.827V136.037H145.935V128.877Z" fill="#82C6E0"/>
<path d="M154.042 128.877H145.935V136.037H154.042V128.877Z" fill="#82C6E0"/>
<path d="M227.009 114.557H218.902V121.718H227.009V114.557Z" fill="#BFE7FF"/>
<path d="M227.009 107.398H218.902V114.558H227.009V107.398Z" fill="#BFE7FF"/>
<path d="M227.009 78.7582H218.902V85.918H227.009V78.7582Z" fill="#A0D5EF"/>
<path d="M227.009 93.0781H218.902V100.238H227.009V93.0781Z" fill="#BFE7FF"/>
<path d="M113.505 136.037H105.397V143.197H113.505V136.037Z" fill="#82C6E0"/>
<path d="M227.009 85.9183H218.902V93.0784H227.009V85.9183Z" fill="#BFE7FF"/>
<path d="M227.009 71.5985H218.902V78.7582H227.009V71.5985Z" fill="#A0D5EF"/>
<path d="M227.009 64.4388H218.902V71.5989H227.009V64.4388Z" fill="#82C6E0"/>
<path d="M64.8598 107.398H56.7524V114.558H64.8598V107.398Z" fill="#BFE7FF"/>
<path d="M64.8598 121.718H56.7524V128.877H64.8598V121.718Z" fill="#A0D5EF"/>
<path d="M64.8598 114.557H56.7524V121.718H64.8598V114.557Z" fill="#BFE7FF"/>
<path d="M64.8598 100.238H56.7524V107.398H64.8598V100.238Z" fill="#BFE7FF"/>
<path d="M64.8598 136.037H56.7524V143.197H64.8598V136.037Z" fill="#82C6E0"/>
<path d="M64.8598 93.0781H56.7524V100.238H64.8598V93.0781Z" fill="#BFE7FF"/>
<path d="M121.612 136.037H113.505V143.197H121.612V136.037Z" fill="#82C6E0"/>
<path d="M64.8598 85.9183H56.7524V93.0784H64.8598V85.9183Z" fill="#BFE7FF"/>
<path d="M64.8598 42.9593H56.7524V50.119H64.8598V42.9593Z" fill="#E1F5FF"/>
<path d="M64.8598 50.119H56.7524V57.2791H64.8598V50.119Z" fill="#E1F5FF"/>
<path d="M64.8598 35.7993H56.7524V42.959H64.8598V35.7993Z" fill="#E1F5FF"/>
<path d="M64.8598 71.5985H56.7524V78.7582H64.8598V71.5985Z" fill="#BFE7FF"/>
<path d="M64.8598 57.2787H56.7524V64.4385H64.8598V57.2787Z" fill="#E1F5FF"/>
<path d="M64.8598 78.7582H56.7524V85.918H64.8598V78.7582Z" fill="#BFE7FF"/>
<path d="M64.8598 64.4388H56.7524V71.5989H64.8598V64.4388Z" fill="#BFE7FF"/>
<path d="M64.8598 128.877H56.7524V136.037H64.8598V128.877Z" fill="#A0D5EF"/>
<path d="M227.009 136.037H218.902V143.197H227.009V136.037Z" fill="#82C6E0"/>
<path d="M235.117 136.037H227.01V143.197H235.117V136.037Z" fill="#82C6E0"/>
<path d="M218.902 136.037H210.795V143.197H218.902V136.037Z" fill="#82C6E0"/>
<path d="M210.794 136.037H202.687V143.197H210.794V136.037Z" fill="#82C6E0"/>
<path d="M235.117 121.718H227.01V128.877H235.117V121.718Z" fill="#A0D5EF"/>
<path d="M235.117 114.557H227.01V121.718H235.117V114.557Z" fill="#BFE7FF"/>
<path d="M235.117 107.398H227.01V114.558H235.117V107.398Z" fill="#BFE7FF"/>
<path d="M235.117 100.238H227.01V107.398H235.117V100.238Z" fill="#BFE7FF"/>
<path d="M235.117 128.877H227.01V136.037H235.117V128.877Z" fill="#A0D5EF"/>
<path d="M202.687 136.037H194.58V143.197H202.687V136.037Z" fill="#82C6E0"/>
<path d="M154.042 136.037H145.935V143.197H154.042V136.037Z" fill="#82C6E0"/>
<path d="M145.935 136.037H137.827V143.197H145.935V136.037Z" fill="#82C6E0"/>
<path d="M137.828 136.037H129.72V143.197H137.828V136.037Z" fill="#82C6E0"/>
<path d="M129.72 136.037H121.612V143.197H129.72V136.037Z" fill="#82C6E0"/>
<path d="M186.472 136.037H178.365V143.197H186.472V136.037Z" fill="#82C6E0"/>
<path d="M194.579 136.037H186.472V143.197H194.579V136.037Z" fill="#82C6E0"/>
<path d="M178.365 136.037H170.257V143.197H178.365V136.037Z" fill="#82C6E0"/>
<path d="M162.15 136.037H154.042V143.197H162.15V136.037Z" fill="#82C6E0"/>
<path d="M170.257 136.037H162.15V143.197H170.257V136.037Z" fill="#82C6E0"/>
<path d="M235.117 78.7582H227.01V85.918H235.117V78.7582Z" fill="#A0D5EF"/>
<path d="M235.117 85.9183H227.01V93.0784H235.117V85.9183Z" fill="#BFE7FF"/>
<path d="M235.117 71.5985H227.01V78.7582H235.117V71.5985Z" fill="#A0D5EF"/>
<path d="M235.117 93.0781H227.01V100.238H235.117V93.0781Z" fill="#BFE7FF"/>
<path d="M105.397 0H97.2899V7.15971H105.397V0Z" fill="#E1F5FF"/>
<path d="M299.977 114.557H291.87V121.718H299.977V114.557Z" fill="#BFE7FF"/>
<path d="M299.977 121.718H291.87V128.877H299.977V121.718Z" fill="#A0D5EF"/>
<path d="M299.977 100.238H291.87V107.398H299.977V100.238Z" fill="#BFE7FF"/>
<path d="M299.977 107.398H291.87V114.558H299.977V107.398Z" fill="#BFE7FF"/>
<path d="M299.977 85.9183H291.87V93.0784H299.977V85.9183Z" fill="#BFE7FF"/>
<path d="M299.977 93.0781H291.87V100.238H299.977V93.0781Z" fill="#BFE7FF"/>
<path d="M348.662 50.119H340.555V57.2788H348.662V50.119Z" fill="#BFE7FF"/>
<path d="M340.555 50.119H332.448V57.2788H340.555V50.119Z" fill="#BFE7FF"/>
<path d="M356.769 50.119H348.662V57.2788H356.769V50.119Z" fill="#BFE7FF"/>
<path d="M300.017 50.119H291.91V57.2788H300.017V50.119Z" fill="#E1F5FF"/>
<path d="M372.985 50.119H364.877V57.2788H372.985V50.119Z" fill="#BFE7FF"/>
<path d="M316.232 50.119H308.125V57.2788H316.232V50.119Z" fill="#E1F5FF"/>
<path d="M308.125 50.119H300.017V57.2788H308.125V50.119Z" fill="#E1F5FF"/>
<path d="M324.34 50.119H316.232V57.2788H324.34V50.119Z" fill="#E1F5FF"/>
<path d="M364.877 50.119H356.77V57.2788H364.877V50.119Z" fill="#BFE7FF"/>
<path d="M389.2 50.119H381.092V57.2788H389.2V50.119Z" fill="#BFE7FF"/>
<path d="M397.307 50.119H389.2V57.2788H397.307V50.119Z" fill="#A0D5EF"/>
<path d="M405.415 50.119H397.307V57.2788H405.415V50.119Z" fill="#A0D5EF"/>
<path d="M381.092 50.119H372.985V57.2788H381.092V50.119Z" fill="#BFE7FF"/>
<path d="M405.415 42.9593H397.307V50.119H405.415V42.9593Z" fill="#A0D5EF"/>
<path d="M389.2 42.9593H381.092V50.119H389.2V42.9593Z" fill="#BFE7FF"/>
<path d="M381.092 42.9593H372.985V50.119H381.092V42.9593Z" fill="#BFE7FF"/>
<path d="M397.307 42.9593H389.2V50.119H397.307V42.9593Z" fill="#A0D5EF"/>
<path d="M372.985 42.9593H364.877V50.119H372.985V42.9593Z" fill="#BFE7FF"/>
<path d="M364.877 57.2787H356.77V64.4385H364.877V57.2787Z" fill="#BFE7FF"/>
<path d="M332.447 57.2787H324.34V64.4385H332.447V57.2787Z" fill="#BFE7FF"/>
<path d="M291.91 57.2787H283.802V64.4385H291.91V57.2787Z" fill="#E1F5FF"/>
<path d="M356.769 57.2787H348.662V64.4385H356.769V57.2787Z" fill="#BFE7FF"/>
<path d="M348.662 57.2787H340.555V64.4385H348.662V57.2787Z" fill="#BFE7FF"/>
<path d="M308.125 57.2787H300.017V64.4385H308.125V57.2787Z" fill="#E1F5FF"/>
<path d="M300.017 57.2787H291.91V64.4385H300.017V57.2787Z" fill="#E1F5FF"/>
<path d="M316.232 57.2787H308.125V64.4385H316.232V57.2787Z" fill="#E1F5FF"/>
<path d="M324.34 57.2787H316.232V64.4385H324.34V57.2787Z" fill="#BFE7FF"/>
<path d="M340.555 57.2787H332.448V64.4385H340.555V57.2787Z" fill="#BFE7FF"/>
<path d="M413.522 57.2787H405.415V64.4385H413.522V57.2787Z" fill="#A0D5EF"/>
<path d="M381.092 57.2787H372.985V64.4385H381.092V57.2787Z" fill="#BFE7FF"/>
<path d="M405.415 57.2787H397.307V64.4385H405.415V57.2787Z" fill="#A0D5EF"/>
<path d="M389.2 57.2787H381.092V64.4385H389.2V57.2787Z" fill="#BFE7FF"/>
<path d="M372.985 57.2787H364.877V64.4385H372.985V57.2787Z" fill="#BFE7FF"/>
<path d="M397.307 57.2787H389.2V64.4385H397.307V57.2787Z" fill="#A0D5EF"/>
<path d="M332.447 50.119H324.34V57.2788H332.447V50.119Z" fill="#BFE7FF"/>
<path d="M364.877 42.9593H356.77V50.119H364.877V42.9593Z" fill="#BFE7FF"/>
<path d="M389.2 28.6395H381.092V35.7992H389.2V28.6395Z" fill="#A0D5EF"/>
<path d="M348.662 28.6395H340.555V35.7992H348.662V28.6395Z" fill="#E1F5FF"/>
<path d="M381.092 28.6395H372.985V35.7992H381.092V28.6395Z" fill="#BFE7FF"/>
<path d="M364.877 28.6395H356.77V35.7992H364.877V28.6395Z" fill="#E1F5FF"/>
<path d="M372.985 28.6395H364.877V35.7992H372.985V28.6395Z" fill="#BFE7FF"/>
<path d="M356.769 28.6395H348.662V35.7992H356.769V28.6395Z" fill="#E1F5FF"/>
<path d="M324.34 28.6395H316.232V35.7992H324.34V28.6395Z" fill="#BFE7FF"/>
<path d="M316.232 28.6395H308.125V35.7992H316.232V28.6395Z" fill="#BFE7FF"/>
<path d="M340.555 28.6395H332.448V35.7992H340.555V28.6395Z" fill="#E1F5FF"/>
<path d="M332.447 28.6395H324.34V35.7992H332.447V28.6395Z" fill="#BFE7FF"/>
<path d="M340.555 42.9593H332.448V50.119H340.555V42.9593Z" fill="#BFE7FF"/>
<path d="M332.447 42.9593H324.34V50.119H332.447V42.9593Z" fill="#E1F5FF"/>
<path d="M348.662 42.9593H340.555V50.119H348.662V42.9593Z" fill="#BFE7FF"/>
<path d="M356.769 42.9593H348.662V50.119H356.769V42.9593Z" fill="#BFE7FF"/>
<path d="M308.125 42.9593H300.017V50.119H308.125V42.9593Z" fill="#E1F5FF"/>
<path d="M300.017 42.9593H291.91V50.119H300.017V42.9593Z" fill="#E1F5FF"/>
<path d="M324.34 42.9593H316.232V50.119H324.34V42.9593Z" fill="#E1F5FF"/>
<path d="M316.232 42.9593H308.125V50.119H316.232V42.9593Z" fill="#E1F5FF"/>
<path d="M348.662 35.7993H340.555V42.959H348.662V35.7993Z" fill="#BFE7FF"/>
<path d="M308.125 35.7993H300.017V42.959H308.125V35.7993Z" fill="#BFE7FF"/>
<path d="M324.34 35.7993H316.232V42.959H324.34V35.7993Z" fill="#E1F5FF"/>
<path d="M332.447 35.7993H324.34V42.959H332.447V35.7993Z" fill="#E1F5FF"/>
<path d="M316.232 35.7993H308.125V42.959H316.232V35.7993Z" fill="#E1F5FF"/>
<path d="M372.985 35.7993H364.877V42.959H372.985V35.7993Z" fill="#BFE7FF"/>
<path d="M397.307 35.7993H389.2V42.959H397.307V35.7993Z" fill="#A0D5EF"/>
<path d="M356.769 35.7993H348.662V42.959H356.769V35.7993Z" fill="#BFE7FF"/>
<path d="M364.877 35.7993H356.77V42.959H364.877V35.7993Z" fill="#BFE7FF"/>
<path d="M389.2 35.7993H381.092V42.959H389.2V35.7993Z" fill="#A0D5EF"/>
<path d="M381.092 35.7993H372.985V42.959H381.092V35.7993Z" fill="#BFE7FF"/>
<path d="M340.555 35.7993H332.448V42.959H340.555V35.7993Z" fill="#E1F5FF"/>
<path d="M421.63 121.718H413.522V128.877H421.63V121.718Z" fill="#A0D5EF"/>
<path d="M421.63 136.037H413.522V143.197H421.63V136.037Z" fill="#82C6E0"/>
<path d="M421.63 128.877H413.522V136.037H421.63V128.877Z" fill="#A0D5EF"/>
<path d="M421.63 114.558H413.522V121.718H421.63V114.558Z" fill="#A0D5EF"/>
<path d="M340.555 100.238H332.448V107.398H340.555V100.238Z" fill="#BFE7FF"/>
<path d="M324.34 100.238H316.232V107.398H324.34V100.238Z" fill="#BFE7FF"/>
<path d="M348.662 100.238H340.555V107.398H348.662V100.238Z" fill="#BFE7FF"/>
<path d="M316.232 100.238H308.125V107.398H316.232V100.238Z" fill="#BFE7FF"/>
<path d="M300.017 100.238H291.91V107.398H300.017V100.238Z" fill="#BFE7FF"/>
<path d="M300.017 107.398H291.91V114.558H300.017V107.398Z" fill="#BFE7FF"/>
<path d="M356.769 100.238H348.662V107.398H356.769V100.238Z" fill="#BFE7FF"/>
<path d="M308.125 100.238H300.017V107.398H308.125V100.238Z" fill="#BFE7FF"/>
<path d="M300.017 114.558H291.91V121.718H300.017V114.558Z" fill="#BFE7FF"/>
<path d="M421.63 100.238H413.522V107.398H421.63V100.238Z" fill="#BFE7FF"/>
<path d="M413.522 100.238H405.415V107.398H413.522V100.238Z" fill="#BFE7FF"/>
<path d="M364.877 100.238H356.77V107.398H364.877V100.238Z" fill="#BFE7FF"/>
<path d="M421.63 107.398H413.522V114.558H421.63V107.398Z" fill="#A0D5EF"/>
<path d="M405.415 100.238H397.307V107.398H405.415V100.238Z" fill="#BFE7FF"/>
<path d="M372.985 100.238H364.877V107.398H372.985V100.238Z" fill="#BFE7FF"/>
<path d="M397.307 100.238H389.2V107.398H397.307V100.238Z" fill="#BFE7FF"/>
<path d="M381.092 100.238H372.985V107.398H381.092V100.238Z" fill="#BFE7FF"/>
<path d="M389.2 100.238H381.092V107.398H389.2V100.238Z" fill="#BFE7FF"/>
<path d="M332.447 100.238H324.34V107.398H332.447V100.238Z" fill="#BFE7FF"/>
<path d="M356.769 107.398H348.662V114.558H356.769V107.398Z" fill="#A0D5EF"/>
<path d="M372.985 107.398H364.877V114.558H372.985V107.398Z" fill="#A0D5EF"/>
<path d="M389.2 107.398H381.092V114.558H389.2V107.398Z" fill="#BFE7FF"/>
<path d="M381.092 107.398H372.985V114.558H381.092V107.398Z" fill="#BFE7FF"/>
<path d="M340.555 107.398H332.448V114.558H340.555V107.398Z" fill="#A0D5EF"/>
<path d="M332.447 107.398H324.34V114.558H332.447V107.398Z" fill="#A0D5EF"/>
<path d="M324.34 107.398H316.232V114.558H324.34V107.398Z" fill="#BFE7FF"/>
<path d="M397.307 107.398H389.2V114.558H397.307V107.398Z" fill="#BFE7FF"/>
<path d="M413.522 121.718H405.415V128.877H413.522V121.718Z" fill="#A0D5EF"/>
<path d="M405.415 107.398H397.307V114.558H405.415V107.398Z" fill="#A0D5EF"/>
<path d="M413.522 136.037H405.415V143.197H413.522V136.037Z" fill="#82C6E0"/>
<path d="M413.522 114.558H405.415V121.718H413.522V114.558Z" fill="#A0D5EF"/>
<path d="M413.522 107.398H405.415V114.558H413.522V107.398Z" fill="#A0D5EF"/>
<path d="M316.232 107.398H308.125V114.558H316.232V107.398Z" fill="#BFE7FF"/>
<path d="M413.522 128.877H405.415V136.037H413.522V128.877Z" fill="#A0D5EF"/>
<path d="M364.877 107.398H356.77V114.558H364.877V107.398Z" fill="#A0D5EF"/>
<path d="M308.125 107.398H300.017V114.558H308.125V107.398Z" fill="#BFE7FF"/>
<path d="M308.125 136.037H300.017V143.197H308.125V136.037Z" fill="#82C6E0"/>
<path d="M308.125 121.718H300.017V128.877H308.125V121.718Z" fill="#A0D5EF"/>
<path d="M308.125 128.877H300.017V136.037H308.125V128.877Z" fill="#A0D5EF"/>
<path d="M308.125 114.558H300.017V121.718H308.125V114.558Z" fill="#BFE7FF"/>
<path d="M372.985 93.0781H364.877V100.238H372.985V93.0781Z" fill="#BFE7FF"/>
<path d="M364.877 93.0781H356.77V100.238H364.877V93.0781Z" fill="#BFE7FF"/>
<path d="M381.092 93.0781H372.985V100.238H381.092V93.0781Z" fill="#BFE7FF"/>
<path d="M389.2 93.0781H381.092V100.238H389.2V93.0781Z" fill="#BFE7FF"/>
<path d="M356.769 93.0781H348.662V100.238H356.769V93.0781Z" fill="#BFE7FF"/>
<path d="M308.125 93.0781H300.017V100.238H308.125V93.0781Z" fill="#BFE7FF"/>
<path d="M332.447 93.0781H324.34V100.238H332.447V93.0781Z" fill="#BFE7FF"/>
<path d="M348.662 93.0781H340.555V100.238H348.662V93.0781Z" fill="#BFE7FF"/>
<path d="M324.34 93.0781H316.232V100.238H324.34V93.0781Z" fill="#BFE7FF"/>
<path d="M397.307 93.0781H389.2V100.238H397.307V93.0781Z" fill="#BFE7FF"/>
<path d="M340.555 93.0781H332.448V100.238H340.555V93.0781Z" fill="#BFE7FF"/>
<path d="M429.737 114.558H421.63V121.718H429.737V114.558Z" fill="#A0D5EF"/>
<path d="M429.737 121.718H421.63V128.877H429.737V121.718Z" fill="#A0D5EF"/>
<path d="M429.737 107.398H421.63V114.558H429.737V107.398Z" fill="#A0D5EF"/>
<path d="M429.737 128.877H421.63V136.037H429.737V128.877Z" fill="#A0D5EF"/>
<path d="M405.415 93.0781H397.307V100.238H405.415V93.0781Z" fill="#BFE7FF"/>
<path d="M429.737 100.238H421.63V107.398H429.737V100.238Z" fill="#A0D5EF"/>
<path d="M413.522 93.0781H405.415V100.238H413.522V93.0781Z" fill="#BFE7FF"/>
<path d="M421.63 93.0781H413.522V100.238H421.63V93.0781Z" fill="#BFE7FF"/>
<path d="M429.737 93.0781H421.63V100.238H429.737V93.0781Z" fill="#BFE7FF"/>
<path d="M300.017 93.0781H291.91V100.238H300.017V93.0781Z" fill="#BFE7FF"/>
<path d="M291.91 100.238H283.802V107.398H291.91V100.238Z" fill="#BFE7FF"/>
<path d="M291.91 107.398H283.802V114.558H291.91V107.398Z" fill="#BFE7FF"/>
<path d="M291.91 93.0781H283.802V100.238H291.91V93.0781Z" fill="#BFE7FF"/>
<path d="M291.91 114.558H283.802V121.718H291.91V114.558Z" fill="#BFE7FF"/>
<path d="M291.91 121.718H283.802V128.877H291.91V121.718Z" fill="#A0D5EF"/>
<path d="M291.91 136.037H283.802V143.197H291.91V136.037Z" fill="#A0D5EF"/>
<path d="M291.91 128.877H283.802V136.037H291.91V128.877Z" fill="#A0D5EF"/>
<path d="M300.017 136.037H291.91V143.197H300.017V136.037Z" fill="#A0D5EF"/>
<path d="M300.017 128.877H291.91V136.037H300.017V128.877Z" fill="#A0D5EF"/>
<path d="M300.017 121.718H291.91V128.877H300.017V121.718Z" fill="#A0D5EF"/>
<path d="M348.662 107.398H340.555V114.558H348.662V107.398Z" fill="#A0D5EF"/>
<path d="M389.2 128.877H381.092V136.037H389.2V128.877Z" fill="#82C6E0"/>
<path d="M348.662 128.877H340.555V136.037H348.662V128.877Z" fill="#82C6E0"/>
<path d="M356.769 128.877H348.662V136.037H356.769V128.877Z" fill="#82C6E0"/>
<path d="M381.092 128.877H372.985V136.037H381.092V128.877Z" fill="#82C6E0"/>
<path d="M372.985 128.877H364.877V136.037H372.985V128.877Z" fill="#82C6E0"/>
<path d="M364.877 128.877H356.77V136.037H364.877V128.877Z" fill="#82C6E0"/>
<path d="M340.555 128.877H332.448V136.037H340.555V128.877Z" fill="#82C6E0"/>
<path d="M332.447 136.037H324.34V143.197H332.447V136.037Z" fill="#82C6E0"/>
<path d="M332.447 128.877H324.34V136.037H332.447V128.877Z" fill="#A0D5EF"/>
<path d="M397.307 136.037H389.2V143.197H397.307V136.037Z" fill="#82C6E0"/>
<path d="M389.2 136.037H381.092V143.197H389.2V136.037Z" fill="#82C6E0"/>
<path d="M340.555 136.037H332.448V143.197H340.555V136.037Z" fill="#82C6E0"/>
<path d="M364.877 136.037H356.77V143.197H364.877V136.037Z" fill="#82C6E0"/>
<path d="M372.985 136.037H364.877V143.197H372.985V136.037Z" fill="#82C6E0"/>
<path d="M381.092 136.037H372.985V143.197H381.092V136.037Z" fill="#82C6E0"/>
<path d="M316.232 121.718H308.125V128.877H316.232V121.718Z" fill="#A0D5EF"/>
<path d="M316.232 136.037H308.125V143.197H316.232V136.037Z" fill="#82C6E0"/>
<path d="M316.232 128.877H308.125V136.037H316.232V128.877Z" fill="#A0D5EF"/>
<path d="M316.232 114.558H308.125V121.718H316.232V114.558Z" fill="#BFE7FF"/>
<path d="M324.34 114.558H316.232V121.718H324.34V114.558Z" fill="#BFE7FF"/>
<path d="M332.447 114.558H324.34V121.718H332.447V114.558Z" fill="#A0D5EF"/>
<path d="M340.555 114.558H332.448V121.718H340.555V114.558Z" fill="#A0D5EF"/>
<path d="M381.092 114.558H372.985V121.718H381.092V114.558Z" fill="#A0D5EF"/>
<path d="M389.2 114.558H381.092V121.718H389.2V114.558Z" fill="#A0D5EF"/>
<path d="M397.307 114.558H389.2V121.718H397.307V114.558Z" fill="#A0D5EF"/>
<path d="M405.415 114.558H397.307V121.718H405.415V114.558Z" fill="#A0D5EF"/>
<path d="M356.769 114.558H348.662V121.718H356.769V114.558Z" fill="#A0D5EF"/>
<path d="M348.662 114.558H340.555V121.718H348.662V114.558Z" fill="#A0D5EF"/>
<path d="M364.877 114.558H356.77V121.718H364.877V114.558Z" fill="#A0D5EF"/>
<path d="M372.985 114.558H364.877V121.718H372.985V114.558Z" fill="#A0D5EF"/>
<path d="M405.415 121.718H397.307V128.877H405.415V121.718Z" fill="#A0D5EF"/>
<path d="M324.34 136.037H316.232V143.197H324.34V136.037Z" fill="#82C6E0"/>
<path d="M397.307 128.877H389.2V136.037H397.307V128.877Z" fill="#82C6E0"/>
<path d="M324.34 128.877H316.232V136.037H324.34V128.877Z" fill="#A0D5EF"/>
<path d="M324.34 121.718H316.232V128.877H324.34V121.718Z" fill="#A0D5EF"/>
<path d="M405.415 128.877H397.307V136.037H405.415V128.877Z" fill="#A0D5EF"/>
<path d="M397.307 121.718H389.2V128.877H397.307V121.718Z" fill="#A0D5EF"/>
<path d="M332.447 121.718H324.34V128.877H332.447V121.718Z" fill="#A0D5EF"/>
<path d="M372.985 121.718H364.877V128.877H372.985V121.718Z" fill="#A0D5EF"/>
<path d="M389.2 121.718H381.092V128.877H389.2V121.718Z" fill="#A0D5EF"/>
<path d="M381.092 121.718H372.985V128.877H381.092V121.718Z" fill="#A0D5EF"/>
<path d="M348.662 121.718H340.555V128.877H348.662V121.718Z" fill="#A0D5EF"/>
<path d="M340.555 121.718H332.448V128.877H340.555V121.718Z" fill="#A0D5EF"/>
<path d="M364.877 121.718H356.77V128.877H364.877V121.718Z" fill="#A0D5EF"/>
<path d="M356.769 121.718H348.662V128.877H356.769V121.718Z" fill="#A0D5EF"/>
<path d="M405.415 136.037H397.307V143.197H405.415V136.037Z" fill="#82C6E0"/>
<path d="M372.985 64.4388H364.877V71.5989H372.985V64.4388Z" fill="#BFE7FF"/>
<path d="M348.662 71.5985H340.555V78.7582H348.662V71.5985Z" fill="#BFE7FF"/>
<path d="M340.555 71.5985H332.448V78.7582H340.555V71.5985Z" fill="#BFE7FF"/>
<path d="M356.769 71.5985H348.662V78.7582H356.769V71.5985Z" fill="#BFE7FF"/>
<path d="M372.985 71.5985H364.877V78.7582H372.985V71.5985Z" fill="#BFE7FF"/>
<path d="M364.877 71.5985H356.77V78.7582H364.877V71.5985Z" fill="#BFE7FF"/>
<path d="M316.232 71.5985H308.125V78.7582H316.232V71.5985Z" fill="#BFE7FF"/>
<path d="M308.125 71.5985H300.017V78.7582H308.125V71.5985Z" fill="#BFE7FF"/>
<path d="M332.447 71.5985H324.34V78.7582H332.447V71.5985Z" fill="#BFE7FF"/>
<path d="M324.34 71.5985H316.232V78.7582H324.34V71.5985Z" fill="#BFE7FF"/>
<path d="M445.952 71.5985H437.845V78.7582H445.952V71.5985Z" fill="#A0D5EF"/>
<path d="M437.844 71.5985H429.737V78.7582H437.844V71.5985Z" fill="#A0D5EF"/>
<path d="M389.2 71.5985H381.092V78.7582H389.2V71.5985Z" fill="#BFE7FF"/>
<path d="M429.737 71.5985H421.63V78.7582H429.737V71.5985Z" fill="#A0D5EF"/>
<path d="M300.017 71.5985H291.91V78.7582H300.017V71.5985Z" fill="#E1F5FF"/>
<path d="M405.415 71.5985H397.307V78.7582H405.415V71.5985Z" fill="#A0D5EF"/>
<path d="M421.63 71.5985H413.522V78.7582H421.63V71.5985Z" fill="#A0D5EF"/>
<path d="M397.307 71.5985H389.2V78.7582H397.307V71.5985Z" fill="#BFE7FF"/>
<path d="M413.522 71.5985H405.415V78.7582H413.522V71.5985Z" fill="#A0D5EF"/>
<path d="M381.092 71.5985H372.985V78.7582H381.092V71.5985Z" fill="#BFE7FF"/>
<path d="M291.91 71.5985H283.802V78.7582H291.91V71.5985Z" fill="#E1F5FF"/>
<path d="M275.695 71.5985H267.587V78.7582H275.695V71.5985Z" fill="#E1F5FF"/>
<path d="M283.802 71.5985H275.695V78.7582H283.802V71.5985Z" fill="#E1F5FF"/>
<path d="M454.059 85.9183H445.952V93.078H454.059V85.9183Z" fill="#A0D5EF"/>
<path d="M454.059 100.238H445.952V107.398H454.059V100.238Z" fill="#A0D5EF"/>
<path d="M454.059 93.0781H445.952V100.238H454.059V93.0781Z" fill="#A0D5EF"/>
<path d="M316.232 64.4388H308.125V71.5989H316.232V64.4388Z" fill="#BFE7FF"/>
<path d="M437.844 64.4388H429.737V71.5989H437.844V64.4388Z" fill="#A0D5EF"/>
<path d="M429.737 64.4388H421.63V71.5989H429.737V64.4388Z" fill="#A0D5EF"/>
<path d="M308.125 64.4388H300.017V71.5989H308.125V64.4388Z" fill="#E1F5FF"/>
<path d="M324.34 64.4388H316.232V71.5989H324.34V64.4388Z" fill="#BFE7FF"/>
<path d="M332.447 64.4388H324.34V71.5989H332.447V64.4388Z" fill="#BFE7FF"/>
<path d="M283.802 64.4388H275.695V71.5989H283.802V64.4388Z" fill="#E1F5FF"/>
<path d="M421.63 64.4388H413.522V71.5989H421.63V64.4388Z" fill="#A0D5EF"/>
<path d="M340.555 64.4388H332.448V71.5989H340.555V64.4388Z" fill="#BFE7FF"/>
<path d="M291.91 64.4388H283.802V71.5989H291.91V64.4388Z" fill="#E1F5FF"/>
<path d="M300.017 64.4388H291.91V71.5989H300.017V64.4388Z" fill="#E1F5FF"/>
<path d="M397.307 64.4388H389.2V71.5989H397.307V64.4388Z" fill="#A0D5EF"/>
<path d="M405.415 64.4388H397.307V71.5989H405.415V64.4388Z" fill="#A0D5EF"/>
<path d="M389.2 64.4388H381.092V71.5989H389.2V64.4388Z" fill="#BFE7FF"/>
<path d="M413.522 64.4388H405.415V71.5989H413.522V64.4388Z" fill="#A0D5EF"/>
<path d="M381.092 64.4388H372.985V71.5989H381.092V64.4388Z" fill="#BFE7FF"/>
<path d="M348.662 64.4388H340.555V71.5989H348.662V64.4388Z" fill="#BFE7FF"/>
<path d="M356.769 64.4388H348.662V71.5989H356.769V64.4388Z" fill="#BFE7FF"/>
<path d="M364.877 64.4388H356.77V71.5989H364.877V64.4388Z" fill="#BFE7FF"/>
<path d="M300.017 85.9183H291.91V93.078H300.017V85.9183Z" fill="#BFE7FF"/>
<path d="M291.91 85.9183H283.802V93.078H291.91V85.9183Z" fill="#BFE7FF"/>
<path d="M316.232 85.9183H308.125V93.078H316.232V85.9183Z" fill="#BFE7FF"/>
<path d="M283.802 85.9183H275.695V93.078H283.802V85.9183Z" fill="#BFE7FF"/>
<path d="M324.34 85.9183H316.232V93.078H324.34V85.9183Z" fill="#BFE7FF"/>
<path d="M308.125 85.9183H300.017V93.078H308.125V85.9183Z" fill="#BFE7FF"/>
<path d="M283.802 114.558H275.695V121.718H283.802V114.558Z" fill="#BFE7FF"/>
<path d="M283.802 107.398H275.695V114.558H283.802V107.398Z" fill="#BFE7FF"/>
<path d="M283.802 93.0781H275.695V100.238H283.802V93.0781Z" fill="#BFE7FF"/>
<path d="M283.802 100.238H275.695V107.398H283.802V100.238Z" fill="#A0D5EF"/>
<path d="M340.555 85.9183H332.448V93.078H340.555V85.9183Z" fill="#BFE7FF"/>
<path d="M389.2 85.9183H381.092V93.078H389.2V85.9183Z" fill="#BFE7FF"/>
<path d="M381.092 85.9183H372.985V93.078H381.092V85.9183Z" fill="#BFE7FF"/>
<path d="M397.307 85.9183H389.2V93.078H397.307V85.9183Z" fill="#A0D5EF"/>
<path d="M372.985 85.9183H364.877V93.078H372.985V85.9183Z" fill="#BFE7FF"/>
<path d="M283.802 121.718H275.695V128.877H283.802V121.718Z" fill="#A0D5EF"/>
<path d="M364.877 85.9183H356.77V93.078H364.877V85.9183Z" fill="#BFE7FF"/>
<path d="M348.662 85.9183H340.555V93.078H348.662V85.9183Z" fill="#BFE7FF"/>
<path d="M332.447 85.9183H324.34V93.078H332.447V85.9183Z" fill="#BFE7FF"/>
<path d="M356.769 85.9183H348.662V93.078H356.769V85.9183Z" fill="#A0D5EF"/>
<path d="M405.415 85.9183H397.307V93.078H405.415V85.9183Z" fill="#BFE7FF"/>
<path d="M283.802 136.037H275.695V143.197H283.802V136.037Z" fill="#A0D5EF"/>
<path d="M283.802 128.877H275.695V136.037H283.802V128.877Z" fill="#A0D5EF"/>
<path d="M437.844 114.558H429.737V121.718H437.844V114.558Z" fill="#A0D5EF"/>
<path d="M413.522 85.9183H405.415V93.078H413.522V85.9183Z" fill="#BFE7FF"/>
<path d="M437.844 100.238H429.737V107.398H437.844V100.238Z" fill="#A0D5EF"/>
<path d="M437.844 107.398H429.737V114.558H437.844V107.398Z" fill="#A0D5EF"/>
<path d="M437.844 121.718H429.737V128.877H437.844V121.718Z" fill="#A0D5EF"/>
<path d="M429.737 85.9183H421.63V93.078H429.737V85.9183Z" fill="#BFE7FF"/>
<path d="M421.63 85.9183H413.522V93.078H421.63V85.9183Z" fill="#BFE7FF"/>
<path d="M437.844 85.9183H429.737V93.078H437.844V85.9183Z" fill="#BFE7FF"/>
<path d="M437.844 93.0781H429.737V100.238H437.844V93.0781Z" fill="#BFE7FF"/>
<path d="M283.802 78.7582H275.695V85.9183H283.802V78.7582Z" fill="#E1F5FF"/>
<path d="M291.91 78.7582H283.802V85.9183H291.91V78.7582Z" fill="#BFE7FF"/>
<path d="M324.34 78.7582H316.232V85.9183H324.34V78.7582Z" fill="#BFE7FF"/>
<path d="M308.125 78.7582H300.017V85.9183H308.125V78.7582Z" fill="#BFE7FF"/>
<path d="M316.232 78.7582H308.125V85.9183H316.232V78.7582Z" fill="#BFE7FF"/>
<path d="M300.017 78.7582H291.91V85.9183H300.017V78.7582Z" fill="#BFE7FF"/>
<path d="M405.415 78.7582H397.307V85.9183H405.415V78.7582Z" fill="#BFE7FF"/>
<path d="M340.555 78.7582H332.448V85.9183H340.555V78.7582Z" fill="#BFE7FF"/>
<path d="M372.985 78.7582H364.877V85.9183H372.985V78.7582Z" fill="#BFE7FF"/>
<path d="M332.447 78.7582H324.34V85.9183H332.447V78.7582Z" fill="#BFE7FF"/>
<path d="M381.092 78.7582H372.985V85.9183H381.092V78.7582Z" fill="#BFE7FF"/>
<path d="M397.307 78.7582H389.2V85.9183H397.307V78.7582Z" fill="#BFE7FF"/>
<path d="M389.2 78.7582H381.092V85.9183H389.2V78.7582Z" fill="#BFE7FF"/>
<path d="M364.877 78.7582H356.77V85.9183H364.877V78.7582Z" fill="#BFE7FF"/>
<path d="M348.662 78.7582H340.555V85.9183H348.662V78.7582Z" fill="#BFE7FF"/>
<path d="M356.769 78.7582H348.662V85.9183H356.769V78.7582Z" fill="#BFE7FF"/>
<path d="M429.737 78.7582H421.63V85.9183H429.737V78.7582Z" fill="#BFE7FF"/>
<path d="M445.952 114.558H437.845V121.718H445.952V114.558Z" fill="#A0D5EF"/>
<path d="M445.952 93.0781H437.845V100.238H445.952V93.0781Z" fill="#A0D5EF"/>
<path d="M445.952 107.398H437.845V114.558H445.952V107.398Z" fill="#A0D5EF"/>
<path d="M445.952 85.9183H437.845V93.078H445.952V85.9183Z" fill="#BFE7FF"/>
<path d="M445.952 100.238H437.845V107.398H445.952V100.238Z" fill="#A0D5EF"/>
<path d="M445.952 78.7582H437.845V85.9183H445.952V78.7582Z" fill="#BFE7FF"/>
<path d="M421.63 78.7582H413.522V85.9183H421.63V78.7582Z" fill="#BFE7FF"/>
<path d="M413.522 78.7582H405.415V85.9183H413.522V78.7582Z" fill="#BFE7FF"/>
<path d="M437.844 78.7582H429.737V85.9183H437.844V78.7582Z" fill="#BFE7FF"/>
<path d="M316.232 93.0781H308.125V100.238H316.232V93.0781Z" fill="#BFE7FF"/>
<path d="M372.985 21.4795H364.877V28.6392H372.985V21.4795Z" fill="#E1F5FF"/>
<path d="M356.769 21.4795H348.662V28.6392H356.769V21.4795Z" fill="#E1F5FF"/>
<path d="M340.555 21.4795H332.448V28.6392H340.555V21.4795Z" fill="#BFE7FF"/>
<path d="M348.662 21.4795H340.555V28.6392H348.662V21.4795Z" fill="#BFE7FF"/>
<path d="M364.877 21.4795H356.77V28.6392H364.877V21.4795Z" fill="#E1F5FF"/>
<path d="M332.447 21.4795H324.34V28.6392H332.447V21.4795Z" fill="#BFE7FF"/>
</svg>
