<svg width="349" height="151" viewBox="0 0 349 151" fill="none" xmlns="http://www.w3.org/2000/svg">
<path d="M64.8598 78.7586H56.7524V85.9187H64.8598V78.7586Z" fill="#BFE7FF"/>
<path d="M64.8598 64.4388H56.7524V71.5989H64.8598V64.4388Z" fill="#E1F5FF"/>
<path d="M64.8598 85.9183H56.7524V93.078H64.8598V85.9183Z" fill="#BFE7FF"/>
<path d="M72.9672 64.4388H64.8599V71.5989H72.9672V64.4388Z" fill="#BFE7FF"/>
<path d="M72.9672 71.5986H64.8599V78.7583H72.9672V71.5986Z" fill="#BFE7FF"/>
<path d="M64.8598 93.0781H56.7524V100.238H64.8598V93.0781Z" fill="#BFE7FF"/>
<path d="M32.4298 107.398H24.3225V114.558H32.4298V107.398Z" fill="#BFE7FF"/>
<path d="M48.6447 107.398H40.5374V114.558H48.6447V107.398Z" fill="#BFE7FF"/>
<path d="M56.7521 107.398H48.6448V114.558H56.7521V107.398Z" fill="#BFE7FF"/>
<path d="M72.9672 78.7586H64.8599V85.9187H72.9672V78.7586Z" fill="#BFE7FF"/>
<path d="M64.8598 107.398H56.7524V114.558H64.8598V107.398Z" fill="#BFE7FF"/>
<path d="M40.5375 107.398H32.4302V114.558H40.5375V107.398Z" fill="#BFE7FF"/>
<path d="M72.9672 107.398H64.8599V114.558H72.9672V107.398Z" fill="#BFE7FF"/>
<path d="M72.9672 85.9183H64.8599V93.078H72.9672V85.9183Z" fill="#BFE7FF"/>
<path d="M72.9672 93.0781H64.8599V100.238H72.9672V93.0781Z" fill="#BFE7FF"/>
<path d="M72.9672 100.238H64.8599V107.398H72.9672V100.238Z" fill="#BFE7FF"/>
<path d="M24.3224 107.398H16.2151V114.558H24.3224V107.398Z" fill="#A0D5EF"/>
<path d="M8.10732 107.398H0V114.558H8.10732V107.398Z" fill="#A0D5EF"/>
<path d="M16.2148 107.398H8.10742V114.558H16.2148V107.398Z" fill="#A0D5EF"/>
<path d="M56.7521 78.7586H48.6448V85.9187H56.7521V78.7586Z" fill="#E1F5FF"/>
<path d="M56.7521 71.5986H48.6448V78.7583H56.7521V71.5986Z" fill="#E1F5FF"/>
<path d="M56.7521 93.0781H48.6448V100.238H56.7521V93.0781Z" fill="#BFE7FF"/>
<path d="M56.7521 85.9183H48.6448V93.078H56.7521V85.9183Z" fill="#BFE7FF"/>
<path d="M56.7521 64.4388H48.6448V71.5989H56.7521V64.4388Z" fill="#E1F5FF"/>
<path d="M48.6447 93.0781H40.5374V100.238H48.6447V93.0781Z" fill="#BFE7FF"/>
<path d="M40.5375 93.0781H32.4302V100.238H40.5375V93.0781Z" fill="#BFE7FF"/>
<path d="M24.3224 93.0781H16.2151V100.238H24.3224V93.0781Z" fill="#E1F5FF"/>
<path d="M32.4298 93.0781H24.3225V100.238H32.4298V93.0781Z" fill="#E1F5FF"/>
<path d="M16.2148 93.0781H8.10742V100.238H16.2148V93.0781Z" fill="#A0D5EF"/>
<path d="M64.8598 100.238H56.7524V107.398H64.8598V100.238Z" fill="#BFE7FF"/>
<path d="M8.10732 100.238H0V107.398H8.10732V100.238Z" fill="#A0D5EF"/>
<path d="M24.3224 100.238H16.2151V107.398H24.3224V100.238Z" fill="#A0D5EF"/>
<path d="M16.2148 100.238H8.10742V107.398H16.2148V100.238Z" fill="#A0D5EF"/>
<path d="M56.7521 100.238H48.6448V107.398H56.7521V100.238Z" fill="#BFE7FF"/>
<path d="M48.6447 100.238H40.5374V107.398H48.6447V100.238Z" fill="#BFE7FF"/>
<path d="M40.5375 100.238H32.4302V107.398H40.5375V100.238Z" fill="#BFE7FF"/>
<path d="M32.4298 100.238H24.3225V107.398H32.4298V100.238Z" fill="#BFE7FF"/>
<path d="M81.0749 121.718H72.9675V128.877H81.0749V121.718Z" fill="#82C6E0"/>
<path d="M89.182 57.2791H81.0747V64.4388H89.182V57.2791Z" fill="#E1F5FF"/>
<path d="M89.182 121.718H81.0747V128.877H89.182V121.718Z" fill="#82C6E0"/>
<path d="M89.182 93.0781H81.0747V100.238H89.182V93.0781Z" fill="#BFE7FF"/>
<path d="M89.182 114.558H81.0747V121.718H89.182V114.558Z" fill="#BFE7FF"/>
<path d="M89.182 100.238H81.0747V107.398H89.182V100.238Z" fill="#BFE7FF"/>
<path d="M89.182 85.9183H81.0747V93.078H89.182V85.9183Z" fill="#BFE7FF"/>
<path d="M89.182 64.4388H81.0747V71.5989H89.182V64.4388Z" fill="#BFE7FF"/>
<path d="M89.182 78.7586H81.0747V85.9187H89.182V78.7586Z" fill="#BFE7FF"/>
<path d="M89.182 107.398H81.0747V114.558H89.182V107.398Z" fill="#BFE7FF"/>
<path d="M16.2148 121.718H8.10742V128.877H16.2148V121.718Z" fill="#A0D5EF"/>
<path d="M24.3224 121.718H16.2151V128.877H24.3224V121.718Z" fill="#A0D5EF"/>
<path d="M72.9672 121.718H64.8599V128.877H72.9672V121.718Z" fill="#82C6E0"/>
<path d="M32.4298 121.718H24.3225V128.877H32.4298V121.718Z" fill="#BFE7FF"/>
<path d="M64.8598 121.718H56.7524V128.877H64.8598V121.718Z" fill="#A0D5EF"/>
<path d="M56.7521 121.718H48.6448V128.877H56.7521V121.718Z" fill="#BFE7FF"/>
<path d="M40.5375 121.718H32.4302V128.877H40.5375V121.718Z" fill="#BFE7FF"/>
<path d="M48.6447 121.718H40.5374V128.877H48.6447V121.718Z" fill="#BFE7FF"/>
<path d="M89.182 71.5986H81.0747V78.7583H89.182V71.5986Z" fill="#BFE7FF"/>
<path d="M89.182 50.1191H81.0747V57.2791H89.182V50.1191Z" fill="#E1F5FF"/>
<path d="M89.182 35.7993H81.0747V42.959H89.182V35.7993Z" fill="#E1F5FF"/>
<path d="M89.182 28.6395H81.0747V35.7992H89.182V28.6395Z" fill="#E1F5FF"/>
<path d="M89.182 42.9594H81.0747V50.1191H89.182V42.9594Z" fill="#E1F5FF"/>
<path d="M89.182 21.4799H81.0747V28.6396H89.182V21.4799Z" fill="#E1F5FF"/>
<path d="M81.0749 114.558H72.9675V121.718H81.0749V114.558Z" fill="#A0D5EF"/>
<path d="M24.3224 114.558H16.2151V121.718H24.3224V114.558Z" fill="#A0D5EF"/>
<path d="M32.4298 114.558H24.3225V121.718H32.4298V114.558Z" fill="#BFE7FF"/>
<path d="M40.5375 114.558H32.4302V121.718H40.5375V114.558Z" fill="#BFE7FF"/>
<path d="M16.2148 114.558H8.10742V121.718H16.2148V114.558Z" fill="#A0D5EF"/>
<path d="M64.8598 114.558H56.7524V121.718H64.8598V114.558Z" fill="#BFE7FF"/>
<path d="M72.9672 114.558H64.8599V121.718H72.9672V114.558Z" fill="#BFE7FF"/>
<path d="M56.7521 114.558H48.6448V121.718H56.7521V114.558Z" fill="#BFE7FF"/>
<path d="M48.6447 114.558H40.5374V121.718H48.6447V114.558Z" fill="#BFE7FF"/>
<path d="M81.0749 107.398H72.9675V114.558H81.0749V107.398Z" fill="#BFE7FF"/>
<path d="M81.0749 35.7993H72.9675V42.959H81.0749V35.7993Z" fill="#E1F5FF"/>
<path d="M81.0749 57.2791H72.9675V64.4388H81.0749V57.2791Z" fill="#E1F5FF"/>
<path d="M81.0749 42.9594H72.9675V50.1191H81.0749V42.9594Z" fill="#E1F5FF"/>
<path d="M81.0749 78.7586H72.9675V85.9187H81.0749V78.7586Z" fill="#BFE7FF"/>
<path d="M81.0749 85.9183H72.9675V93.078H81.0749V85.9183Z" fill="#BFE7FF"/>
<path d="M81.0749 100.238H72.9675V107.398H81.0749V100.238Z" fill="#BFE7FF"/>
<path d="M81.0749 93.0781H72.9675V100.238H81.0749V93.0781Z" fill="#BFE7FF"/>
<path d="M81.0749 50.1191H72.9675V57.2791H81.0749V50.1191Z" fill="#E1F5FF"/>
<path d="M81.0749 64.4388H72.9675V71.5989H81.0749V64.4388Z" fill="#BFE7FF"/>
<path d="M81.0749 71.5986H72.9675V78.7583H81.0749V71.5986Z" fill="#BFE7FF"/>
<path d="M64.8598 71.5986H56.7524V78.7583H64.8598V71.5986Z" fill="#E1F5FF"/>
<path d="M40.5375 71.5986H32.4302V78.7583H40.5375V71.5986Z" fill="#E1F5FF"/>
<path d="M40.5375 78.7586H32.4302V85.9187H40.5375V78.7586Z" fill="#E1F5FF"/>
<path d="M32.4298 78.7586H24.3225V85.9187H32.4298V78.7586Z" fill="#E1F5FF"/>
<path d="M24.3224 78.7586H16.2151V85.9187H24.3224V78.7586Z" fill="#E1F5FF"/>
<path d="M40.5375 64.4388H32.4302V71.5989H40.5375V64.4388Z" fill="#E1F5FF"/>
<path d="M48.6447 64.4388H40.5374V71.5989H48.6447V64.4388Z" fill="#E1F5FF"/>
<path d="M48.6447 78.7586H40.5374V85.9187H48.6447V78.7586Z" fill="#E1F5FF"/>
<path d="M48.6447 71.5986H40.5374V78.7583H48.6447V71.5986Z" fill="#E1F5FF"/>
<path d="M48.6447 85.9183H40.5374V93.078H48.6447V85.9183Z" fill="#BFE7FF"/>
<path d="M40.5375 85.9183H32.4302V93.078H40.5375V85.9183Z" fill="#E1F5FF"/>
<path d="M24.3224 85.9183H16.2151V93.078H24.3224V85.9183Z" fill="#E1F5FF"/>
<path d="M32.4298 85.9183H24.3225V93.078H32.4298V85.9183Z" fill="#E1F5FF"/>
<path d="M16.2148 85.9183H8.10742V93.078H16.2148V85.9183Z" fill="#E1F5FF"/>
<path d="M24.3224 71.5986H16.2151V78.7583H24.3224V71.5986Z" fill="#E1F5FF"/>
<path d="M32.4298 71.5986H24.3225V78.7583H32.4298V71.5986Z" fill="#E1F5FF"/>
<path d="M137.827 71.5986H129.719V78.7583H137.827V71.5986Z" fill="#BFE7FF"/>
<path d="M137.827 107.398H129.719V114.558H137.827V107.398Z" fill="#BFE7FF"/>
<path d="M137.827 114.558H129.719V121.718H137.827V114.558Z" fill="#BFE7FF"/>
<path d="M137.827 136.037H129.719V143.197H137.827V136.037Z" fill="#82C6E0"/>
<path d="M137.827 128.878H129.719V136.038H137.827V128.878Z" fill="#BFE7FF"/>
<path d="M137.827 78.7586H129.719V85.9187H137.827V78.7586Z" fill="#BFE7FF"/>
<path d="M137.827 85.9183H129.719V93.078H137.827V85.9183Z" fill="#BFE7FF"/>
<path d="M137.827 93.0781H129.719V100.238H137.827V93.0781Z" fill="#BFE7FF"/>
<path d="M137.827 100.238H129.719V107.398H137.827V100.238Z" fill="#BFE7FF"/>
<path d="M137.827 121.718H129.719V128.877H137.827V121.718Z" fill="#BFE7FF"/>
<path d="M137.827 35.7993H129.719V42.959H137.827V35.7993Z" fill="#BFE7FF"/>
<path d="M137.827 64.4388H129.719V71.5989H137.827V64.4388Z" fill="#BFE7FF"/>
<path d="M137.827 42.9594H129.719V50.1191H137.827V42.9594Z" fill="#BFE7FF"/>
<path d="M137.827 50.1191H129.719V57.2791H137.827V50.1191Z" fill="#BFE7FF"/>
<path d="M137.827 57.2791H129.719V64.4388H137.827V57.2791Z" fill="#BFE7FF"/>
<path d="M137.827 0H129.719V7.16007H137.827V0Z" fill="#E1F5FF"/>
<path d="M137.827 7.16003H129.719V14.3197H137.827V7.16003Z" fill="#BFE7FF"/>
<path d="M137.827 14.3198H129.719V21.4795H137.827V14.3198Z" fill="#BFE7FF"/>
<path d="M137.827 21.4799H129.719V28.6396H137.827V21.4799Z" fill="#BFE7FF"/>
<path d="M137.827 28.6395H129.719V35.7992H137.827V28.6395Z" fill="#BFE7FF"/>
<path d="M129.72 0H121.612V7.16007H129.72V0Z" fill="#E1F5FF"/>
<path d="M129.72 57.2791H121.612V64.4388H129.72V57.2791Z" fill="#BFE7FF"/>
<path d="M129.72 7.16003H121.612V14.3197H129.72V7.16003Z" fill="#E1F5FF"/>
<path d="M129.72 50.1191H121.612V57.2791H129.72V50.1191Z" fill="#BFE7FF"/>
<path d="M129.72 64.4388H121.612V71.5989H129.72V64.4388Z" fill="#BFE7FF"/>
<path d="M129.72 42.9594H121.612V50.1191H129.72V42.9594Z" fill="#BFE7FF"/>
<path d="M129.72 35.7993H121.612V42.959H129.72V35.7993Z" fill="#BFE7FF"/>
<path d="M129.72 21.4799H121.612V28.6396H129.72V21.4799Z" fill="#BFE7FF"/>
<path d="M129.72 14.3198H121.612V21.4795H129.72V14.3198Z" fill="#BFE7FF"/>
<path d="M129.72 28.6395H121.612V35.7992H129.72V28.6395Z" fill="#BFE7FF"/>
<path d="M129.72 71.5986H121.612V78.7583H129.72V71.5986Z" fill="#BFE7FF"/>
<path d="M129.72 78.7586H121.612V85.9187H129.72V78.7586Z" fill="#BFE7FF"/>
<path d="M129.72 128.878H121.612V136.038H129.72V128.878Z" fill="#BFE7FF"/>
<path d="M129.72 114.558H121.612V121.718H129.72V114.558Z" fill="#BFE7FF"/>
<path d="M129.72 136.037H121.612V143.197H129.72V136.037Z" fill="#82C6E0"/>
<path d="M129.72 107.398H121.612V114.558H129.72V107.398Z" fill="#BFE7FF"/>
<path d="M129.72 85.9183H121.612V93.078H129.72V85.9183Z" fill="#BFE7FF"/>
<path d="M129.72 143.197H121.612V150.357H129.72V143.197Z" fill="#82C6E0"/>
<path d="M129.72 93.0781H121.612V100.238H129.72V93.0781Z" fill="#BFE7FF"/>
<path d="M129.72 100.238H121.612V107.398H129.72V100.238Z" fill="#BFE7FF"/>
<path d="M129.72 121.718H121.612V128.877H129.72V121.718Z" fill="#BFE7FF"/>
<path d="M154.042 0H145.935V7.16007H154.042V0Z" fill="#A0D5EF"/>
<path d="M154.042 28.6395H145.935V35.7992H154.042V28.6395Z" fill="#BFE7FF"/>
<path d="M154.042 14.3198H145.935V21.4795H154.042V14.3198Z" fill="#BFE7FF"/>
<path d="M154.042 21.4799H145.935V28.6396H154.042V21.4799Z" fill="#BFE7FF"/>
<path d="M154.042 7.16003H145.935V14.3197H154.042V7.16003Z" fill="#BFE7FF"/>
<path d="M154.042 100.238H145.935V107.398H154.042V100.238Z" fill="#BFE7FF"/>
<path d="M154.042 71.5986H145.935V78.7583H154.042V71.5986Z" fill="#BFE7FF"/>
<path d="M154.042 78.7586H145.935V85.9187H154.042V78.7586Z" fill="#BFE7FF"/>
<path d="M154.042 85.9183H145.935V93.078H154.042V85.9183Z" fill="#BFE7FF"/>
<path d="M154.042 35.7993H145.935V42.959H154.042V35.7993Z" fill="#BFE7FF"/>
<path d="M154.042 93.0781H145.935V100.238H154.042V93.0781Z" fill="#BFE7FF"/>
<path d="M154.042 64.4388H145.935V71.5989H154.042V64.4388Z" fill="#BFE7FF"/>
<path d="M154.042 50.1191H145.935V57.2791H154.042V50.1191Z" fill="#BFE7FF"/>
<path d="M154.042 42.9594H145.935V50.1191H154.042V42.9594Z" fill="#BFE7FF"/>
<path d="M154.042 57.2791H145.935V64.4388H154.042V57.2791Z" fill="#BFE7FF"/>
<path d="M154.042 107.398H145.935V114.558H154.042V107.398Z" fill="#BFE7FF"/>
<path d="M154.042 121.718H145.935V128.877H154.042V121.718Z" fill="#BFE7FF"/>
<path d="M154.042 136.037H145.935V143.197H154.042V136.037Z" fill="#82C6E0"/>
<path d="M154.042 114.558H145.935V121.718H154.042V114.558Z" fill="#BFE7FF"/>
<path d="M154.042 128.878H145.935V136.038H154.042V128.878Z" fill="#A0D5EF"/>
<path d="M145.935 136.037H137.827V143.197H145.935V136.037Z" fill="#82C6E0"/>
<path d="M145.935 71.5986H137.827V78.7583H145.935V71.5986Z" fill="#BFE7FF"/>
<path d="M145.935 35.7993H137.827V42.959H145.935V35.7993Z" fill="#BFE7FF"/>
<path d="M145.935 50.1191H137.827V57.2791H145.935V50.1191Z" fill="#BFE7FF"/>
<path d="M145.935 28.6395H137.827V35.7992H145.935V28.6395Z" fill="#BFE7FF"/>
<path d="M145.935 7.16003H137.827V14.3197H145.935V7.16003Z" fill="#BFE7FF"/>
<path d="M145.935 0H137.827V7.16007H145.935V0Z" fill="#BFE7FF"/>
<path d="M145.935 21.4799H137.827V28.6396H145.935V21.4799Z" fill="#BFE7FF"/>
<path d="M145.935 57.2791H137.827V64.4388H145.935V57.2791Z" fill="#BFE7FF"/>
<path d="M145.935 14.3198H137.827V21.4795H145.935V14.3198Z" fill="#BFE7FF"/>
<path d="M145.935 114.558H137.827V121.718H145.935V114.558Z" fill="#BFE7FF"/>
<path d="M145.935 107.398H137.827V114.558H145.935V107.398Z" fill="#BFE7FF"/>
<path d="M145.935 100.238H137.827V107.398H145.935V100.238Z" fill="#BFE7FF"/>
<path d="M145.935 121.718H137.827V128.877H145.935V121.718Z" fill="#BFE7FF"/>
<path d="M145.935 128.878H137.827V136.038H145.935V128.878Z" fill="#A0D5EF"/>
<path d="M145.935 93.0781H137.827V100.238H145.935V93.0781Z" fill="#BFE7FF"/>
<path d="M145.935 78.7586H137.827V85.9187H145.935V78.7586Z" fill="#BFE7FF"/>
<path d="M145.935 64.4388H137.827V71.5989H145.935V64.4388Z" fill="#BFE7FF"/>
<path d="M145.935 85.9183H137.827V93.078H145.935V85.9183Z" fill="#BFE7FF"/>
<path d="M145.935 42.9594H137.827V50.1191H145.935V42.9594Z" fill="#BFE7FF"/>
<path d="M72.9672 136.037H64.8599V143.197H72.9672V136.037Z" fill="#82C6E0"/>
<path d="M64.8598 136.037H56.7524V143.197H64.8598V136.037Z" fill="#82C6E0"/>
<path d="M56.7521 136.037H48.6448V143.197H56.7521V136.037Z" fill="#82C6E0"/>
<path d="M40.5375 136.037H32.4302V143.197H40.5375V136.037Z" fill="#82C6E0"/>
<path d="M48.6447 136.037H40.5374V143.197H48.6447V136.037Z" fill="#82C6E0"/>
<path d="M105.397 136.037H97.2898V143.197H105.397V136.037Z" fill="#82C6E0"/>
<path d="M32.4298 136.037H24.3225V143.197H32.4298V136.037Z" fill="#A0D5EF"/>
<path d="M97.2895 136.037H89.1821V143.197H97.2895V136.037Z" fill="#82C6E0"/>
<path d="M89.182 136.037H81.0747V143.197H89.182V136.037Z" fill="#82C6E0"/>
<path d="M81.0749 136.037H72.9675V143.197H81.0749V136.037Z" fill="#82C6E0"/>
<path d="M105.397 128.878H97.2898V136.038H105.397V128.878Z" fill="#82C6E0"/>
<path d="M24.3224 136.037H16.2151V143.197H24.3224V136.037Z" fill="#A0D5EF"/>
<path d="M105.397 14.3198H97.2898V21.4795H105.397V14.3198Z" fill="#E1F5FF"/>
<path d="M105.397 21.4799H97.2898V28.6396H105.397V21.4799Z" fill="#E1F5FF"/>
<path d="M105.397 28.6395H97.2898V35.7992H105.397V28.6395Z" fill="#E1F5FF"/>
<path d="M105.397 50.1191H97.2898V57.2791H105.397V50.1191Z" fill="#E1F5FF"/>
<path d="M105.397 42.9594H97.2898V50.1191H105.397V42.9594Z" fill="#E1F5FF"/>
<path d="M105.397 78.7586H97.2898V85.9187H105.397V78.7586Z" fill="#BFE7FF"/>
<path d="M105.397 107.398H97.2898V114.558H105.397V107.398Z" fill="#BFE7FF"/>
<path d="M105.397 93.0781H97.2898V100.238H105.397V93.0781Z" fill="#BFE7FF"/>
<path d="M105.397 100.238H97.2898V107.398H105.397V100.238Z" fill="#BFE7FF"/>
<path d="M105.397 114.558H97.2898V121.718H105.397V114.558Z" fill="#BFE7FF"/>
<path d="M105.397 71.5986H97.2898V78.7583H105.397V71.5986Z" fill="#BFE7FF"/>
<path d="M105.397 85.9183H97.2898V93.078H105.397V85.9183Z" fill="#BFE7FF"/>
<path d="M105.397 57.2791H97.2898V64.4388H105.397V57.2791Z" fill="#BFE7FF"/>
<path d="M105.397 64.4388H97.2898V71.5989H105.397V64.4388Z" fill="#BFE7FF"/>
<path d="M105.397 121.718H97.2898V128.877H105.397V121.718Z" fill="#A0D5EF"/>
<path d="M105.397 35.7993H97.2898V42.959H105.397V35.7993Z" fill="#E1F5FF"/>
<path d="M97.2895 50.1191H89.1821V57.2791H97.2895V50.1191Z" fill="#E1F5FF"/>
<path d="M97.2895 57.2791H89.1821V64.4388H97.2895V57.2791Z" fill="#E1F5FF"/>
<path d="M97.2895 35.7993H89.1821V42.959H97.2895V35.7993Z" fill="#E1F5FF"/>
<path d="M97.2895 42.9594H89.1821V50.1191H97.2895V42.9594Z" fill="#E1F5FF"/>
<path d="M97.2895 14.3198H89.1821V21.4795H97.2895V14.3198Z" fill="#E1F5FF"/>
<path d="M97.2895 64.4388H89.1821V71.5989H97.2895V64.4388Z" fill="#BFE7FF"/>
<path d="M97.2895 21.4799H89.1821V28.6396H97.2895V21.4799Z" fill="#E1F5FF"/>
<path d="M97.2895 28.6395H89.1821V35.7992H97.2895V28.6395Z" fill="#E1F5FF"/>
<path d="M97.2895 71.5986H89.1821V78.7583H97.2895V71.5986Z" fill="#BFE7FF"/>
<path d="M97.2895 107.398H89.1821V114.558H97.2895V107.398Z" fill="#BFE7FF"/>
<path d="M97.2895 121.718H89.1821V128.877H97.2895V121.718Z" fill="#82C6E0"/>
<path d="M97.2895 114.558H89.1821V121.718H97.2895V114.558Z" fill="#BFE7FF"/>
<path d="M97.2895 128.878H89.1821V136.038H97.2895V128.878Z" fill="#82C6E0"/>
<path d="M97.2895 93.0781H89.1821V100.238H97.2895V93.0781Z" fill="#BFE7FF"/>
<path d="M97.2895 85.9183H89.1821V93.078H97.2895V85.9183Z" fill="#BFE7FF"/>
<path d="M97.2895 100.238H89.1821V107.398H97.2895V100.238Z" fill="#BFE7FF"/>
<path d="M97.2895 78.7586H89.1821V85.9187H97.2895V78.7586Z" fill="#BFE7FF"/>
<path d="M89.182 128.878H81.0747V136.038H89.182V128.878Z" fill="#82C6E0"/>
<path d="M56.7521 128.878H48.6448V136.038H56.7521V128.878Z" fill="#82C6E0"/>
<path d="M81.0749 128.878H72.9675V136.038H81.0749V128.878Z" fill="#82C6E0"/>
<path d="M40.5375 128.878H32.4302V136.038H40.5375V128.878Z" fill="#A0D5EF"/>
<path d="M24.3224 128.878H16.2151V136.038H24.3224V128.878Z" fill="#A0D5EF"/>
<path d="M32.4298 128.878H24.3225V136.038H32.4298V128.878Z" fill="#A0D5EF"/>
<path d="M64.8598 128.878H56.7524V136.038H64.8598V128.878Z" fill="#82C6E0"/>
<path d="M72.9672 128.878H64.8599V136.038H72.9672V128.878Z" fill="#82C6E0"/>
<path d="M48.6447 128.878H40.5374V136.038H48.6447V128.878Z" fill="#A0D5EF"/>
<path d="M121.612 143.197H113.505V150.357H121.612V143.197Z" fill="#82C6E0"/>
<path d="M121.612 136.037H113.505V143.197H121.612V136.037Z" fill="#82C6E0"/>
<path d="M121.612 42.9594H113.505V50.1191H121.612V42.9594Z" fill="#BFE7FF"/>
<path d="M121.612 35.7993H113.505V42.959H121.612V35.7993Z" fill="#BFE7FF"/>
<path d="M121.612 50.1191H113.505V57.2791H121.612V50.1191Z" fill="#BFE7FF"/>
<path d="M121.612 28.6395H113.505V35.7992H121.612V28.6395Z" fill="#BFE7FF"/>
<path d="M121.612 21.4799H113.505V28.6396H121.612V21.4799Z" fill="#BFE7FF"/>
<path d="M121.612 7.16003H113.505V14.3197H121.612V7.16003Z" fill="#E1F5FF"/>
<path d="M121.612 57.2791H113.505V64.4388H121.612V57.2791Z" fill="#BFE7FF"/>
<path d="M121.612 14.3198H113.505V21.4795H121.612V14.3198Z" fill="#E1F5FF"/>
<path d="M121.612 114.558H113.505V121.718H121.612V114.558Z" fill="#BFE7FF"/>
<path d="M121.612 64.4388H113.505V71.5989H121.612V64.4388Z" fill="#BFE7FF"/>
<path d="M121.612 128.878H113.505V136.038H121.612V128.878Z" fill="#A0D5EF"/>
<path d="M121.612 100.238H113.505V107.398H121.612V100.238Z" fill="#BFE7FF"/>
<path d="M121.612 121.718H113.505V128.877H121.612V121.718Z" fill="#BFE7FF"/>
<path d="M121.612 107.398H113.505V114.558H121.612V107.398Z" fill="#BFE7FF"/>
<path d="M121.612 78.7586H113.505V85.9187H121.612V78.7586Z" fill="#BFE7FF"/>
<path d="M121.612 71.5986H113.505V78.7583H121.612V71.5986Z" fill="#BFE7FF"/>
<path d="M121.612 93.0781H113.505V100.238H121.612V93.0781Z" fill="#BFE7FF"/>
<path d="M121.612 85.9183H113.505V93.078H121.612V85.9183Z" fill="#BFE7FF"/>
<path d="M105.397 143.197H97.2898V150.357H105.397V143.197Z" fill="#82C6E0"/>
<path d="M113.505 107.398H105.397V114.558H113.505V107.398Z" fill="#BFE7FF"/>
<path d="M113.505 143.197H105.397V150.357H113.505V143.197Z" fill="#82C6E0"/>
<path d="M113.505 136.037H105.397V143.197H113.505V136.037Z" fill="#82C6E0"/>
<path d="M113.505 121.718H105.397V128.877H113.505V121.718Z" fill="#BFE7FF"/>
<path d="M113.505 114.558H105.397V121.718H113.505V114.558Z" fill="#BFE7FF"/>
<path d="M113.505 128.878H105.397V136.038H113.505V128.878Z" fill="#82C6E0"/>
<path d="M72.9672 143.197H64.8599V150.357H72.9672V143.197Z" fill="#82C6E0"/>
<path d="M40.5375 143.197H32.4302V150.357H40.5375V143.197Z" fill="#82C6E0"/>
<path d="M64.8598 143.197H56.7524V150.357H64.8598V143.197Z" fill="#82C6E0"/>
<path d="M56.7521 143.197H48.6448V150.357H56.7521V143.197Z" fill="#82C6E0"/>
<path d="M48.6447 143.197H40.5374V150.357H48.6447V143.197Z" fill="#82C6E0"/>
<path d="M113.505 71.5986H105.397V78.7583H113.505V71.5986Z" fill="#BFE7FF"/>
<path d="M113.505 7.16003H105.397V14.3197H113.505V7.16003Z" fill="#E1F5FF"/>
<path d="M113.505 100.238H105.397V107.398H113.505V100.238Z" fill="#BFE7FF"/>
<path d="M113.505 21.4799H105.397V28.6396H113.505V21.4799Z" fill="#E1F5FF"/>
<path d="M113.505 14.3198H105.397V21.4795H113.505V14.3198Z" fill="#E1F5FF"/>
<path d="M113.505 28.6395H105.397V35.7992H113.505V28.6395Z" fill="#E1F5FF"/>
<path d="M113.505 85.9183H105.397V93.078H113.505V85.9183Z" fill="#BFE7FF"/>
<path d="M113.505 78.7586H105.397V85.9187H113.505V78.7586Z" fill="#BFE7FF"/>
<path d="M113.505 93.0781H105.397V100.238H113.505V93.0781Z" fill="#A0D5EF"/>
<path d="M113.505 64.4388H105.397V71.5989H113.505V64.4388Z" fill="#BFE7FF"/>
<path d="M113.505 50.1191H105.397V57.2791H113.505V50.1191Z" fill="#BFE7FF"/>
<path d="M113.505 42.9594H105.397V50.1191H113.505V42.9594Z" fill="#BFE7FF"/>
<path d="M113.505 57.2791H105.397V64.4388H113.505V57.2791Z" fill="#BFE7FF"/>
<path d="M113.505 35.7993H105.397V42.959H113.505V35.7993Z" fill="#E1F5FF"/>
<path d="M243.224 50.1191H235.117V57.2791H243.224V50.1191Z" fill="#A0D5EF"/>
<path d="M243.224 57.2791H235.117V64.4388H243.224V57.2791Z" fill="#BFE7FF"/>
<path d="M243.224 64.4388H235.117V71.5989H243.224V64.4388Z" fill="#BFE7FF"/>
<path d="M251.332 128.878H243.225V136.038H251.332V128.878Z" fill="#A0D5EF"/>
<path d="M308.084 107.398H299.977V114.558H308.084V107.398Z" fill="#BFE7FF"/>
<path d="M243.224 71.5986H235.117V78.7583H243.224V71.5986Z" fill="#BFE7FF"/>
<path d="M316.192 107.398H308.084V114.558H316.192V107.398Z" fill="#BFE7FF"/>
<path d="M299.977 107.398H291.869V114.558H299.977V107.398Z" fill="#BFE7FF"/>
<path d="M291.869 107.398H283.762V114.558H291.869V107.398Z" fill="#BFE7FF"/>
<path d="M283.762 107.398H275.654V114.558H283.762V107.398Z" fill="#BFE7FF"/>
<path d="M324.299 107.398H316.192V114.558H324.299V107.398Z" fill="#BFE7FF"/>
<path d="M340.514 107.398H332.407V114.558H340.514V107.398Z" fill="#BFE7FF"/>
<path d="M332.407 107.398H324.299V114.558H332.407V107.398Z" fill="#BFE7FF"/>
<path d="M243.224 85.9183H235.117V93.078H243.224V85.9183Z" fill="#BFE7FF"/>
<path d="M243.224 93.0781H235.117V100.238H243.224V93.0781Z" fill="#BFE7FF"/>
<path d="M243.224 100.238H235.117V107.398H243.224V100.238Z" fill="#A0D5EF"/>
<path d="M275.654 107.398H267.547V114.558H275.654V107.398Z" fill="#BFE7FF"/>
<path d="M243.224 78.7586H235.117V85.9187H243.224V78.7586Z" fill="#BFE7FF"/>
<path d="M259.439 107.398H251.332V114.558H259.439V107.398Z" fill="#BFE7FF"/>
<path d="M243.224 107.398H235.117V114.558H243.224V107.398Z" fill="#A0D5EF"/>
<path d="M267.547 107.398H259.439V114.558H267.547V107.398Z" fill="#BFE7FF"/>
<path d="M251.332 107.398H243.225V114.558H251.332V107.398Z" fill="#A0D5EF"/>
<path d="M251.332 42.9594H243.225V50.1191H251.332V42.9594Z" fill="#A0D5EF"/>
<path d="M267.547 93.0781H259.439V100.238H267.547V93.0781Z" fill="#BFE7FF"/>
<path d="M259.439 42.9594H251.332V50.1191H259.439V42.9594Z" fill="#A0D5EF"/>
<path d="M259.439 35.7993H251.332V42.959H259.439V35.7993Z" fill="#A0D5EF"/>
<path d="M259.439 50.1191H251.332V57.2791H259.439V50.1191Z" fill="#A0D5EF"/>
<path d="M316.192 93.0781H308.084V100.238H316.192V93.0781Z" fill="#BFE7FF"/>
<path d="M299.977 93.0781H291.869V100.238H299.977V93.0781Z" fill="#BFE7FF"/>
<path d="M332.407 93.0781H324.299V100.238H332.407V93.0781Z" fill="#BFE7FF"/>
<path d="M308.084 93.0781H299.977V100.238H308.084V93.0781Z" fill="#BFE7FF"/>
<path d="M324.299 93.0781H316.192V100.238H324.299V93.0781Z" fill="#BFE7FF"/>
<path d="M259.439 57.2791H251.332V64.4388H259.439V57.2791Z" fill="#BFE7FF"/>
<path d="M348.622 93.0781H340.514V100.238H348.622V93.0781Z" fill="#BFE7FF"/>
<path d="M340.514 93.0781H332.407V100.238H340.514V93.0781Z" fill="#BFE7FF"/>
<path d="M259.439 78.7586H251.332V85.9187H259.439V78.7586Z" fill="#BFE7FF"/>
<path d="M259.439 85.9183H251.332V93.078H259.439V85.9183Z" fill="#BFE7FF"/>
<path d="M259.439 71.5986H251.332V78.7583H259.439V71.5986Z" fill="#BFE7FF"/>
<path d="M259.439 64.4388H251.332V71.5989H259.439V64.4388Z" fill="#BFE7FF"/>
<path d="M275.654 93.0781H267.547V100.238H275.654V93.0781Z" fill="#BFE7FF"/>
<path d="M259.439 93.0781H251.332V100.238H259.439V93.0781Z" fill="#BFE7FF"/>
<path d="M283.762 93.0781H275.654V100.238H283.762V93.0781Z" fill="#BFE7FF"/>
<path d="M291.869 93.0781H283.762V100.238H291.869V93.0781Z" fill="#BFE7FF"/>
<path d="M251.332 50.1191H243.225V57.2791H251.332V50.1191Z" fill="#A0D5EF"/>
<path d="M316.192 100.238H308.084V107.398H316.192V100.238Z" fill="#BFE7FF"/>
<path d="M275.654 100.238H267.547V107.398H275.654V100.238Z" fill="#BFE7FF"/>
<path d="M267.547 100.238H259.439V107.398H267.547V100.238Z" fill="#BFE7FF"/>
<path d="M251.332 93.0781H243.225V100.238H251.332V93.0781Z" fill="#BFE7FF"/>
<path d="M283.762 100.238H275.654V107.398H283.762V100.238Z" fill="#BFE7FF"/>
<path d="M308.084 100.238H299.977V107.398H308.084V100.238Z" fill="#BFE7FF"/>
<path d="M299.977 100.238H291.869V107.398H299.977V100.238Z" fill="#BFE7FF"/>
<path d="M251.332 85.9183H243.225V93.078H251.332V85.9183Z" fill="#BFE7FF"/>
<path d="M291.869 100.238H283.762V107.398H291.869V100.238Z" fill="#A0D5EF"/>
<path d="M259.439 100.238H251.332V107.398H259.439V100.238Z" fill="#BFE7FF"/>
<path d="M251.332 78.7586H243.225V85.9187H251.332V78.7586Z" fill="#BFE7FF"/>
<path d="M251.332 64.4388H243.225V71.5989H251.332V64.4388Z" fill="#BFE7FF"/>
<path d="M251.332 71.5986H243.225V78.7583H251.332V71.5986Z" fill="#BFE7FF"/>
<path d="M251.332 57.2791H243.225V64.4388H251.332V57.2791Z" fill="#BFE7FF"/>
<path d="M251.332 100.238H243.225V107.398H251.332V100.238Z" fill="#BFE7FF"/>
<path d="M340.514 100.238H332.407V107.398H340.514V100.238Z" fill="#BFE7FF"/>
<path d="M332.407 100.238H324.299V107.398H332.407V100.238Z" fill="#BFE7FF"/>
<path d="M324.299 100.238H316.192V107.398H324.299V100.238Z" fill="#BFE7FF"/>
<path d="M267.547 121.718H259.439V128.877H267.547V121.718Z" fill="#A0D5EF"/>
<path d="M227.009 100.238H218.902V107.398H227.009V100.238Z" fill="#A0D5EF"/>
<path d="M227.009 93.0781H218.902V100.238H227.009V93.0781Z" fill="#BFE7FF"/>
<path d="M227.009 78.7586H218.902V85.9187H227.009V78.7586Z" fill="#BFE7FF"/>
<path d="M227.009 71.5986H218.902V78.7583H227.009V71.5986Z" fill="#BFE7FF"/>
<path d="M227.009 85.9183H218.902V93.078H227.009V85.9183Z" fill="#BFE7FF"/>
<path d="M227.009 107.398H218.902V114.558H227.009V107.398Z" fill="#A0D5EF"/>
<path d="M227.009 121.718H218.902V128.877H227.009V121.718Z" fill="#A0D5EF"/>
<path d="M235.117 121.718H227.01V128.877H235.117V121.718Z" fill="#A0D5EF"/>
<path d="M227.009 114.558H218.902V121.718H227.009V114.558Z" fill="#A0D5EF"/>
<path d="M243.224 121.718H235.117V128.877H243.224V121.718Z" fill="#A0D5EF"/>
<path d="M227.009 50.1191H218.902V57.2791H227.009V50.1191Z" fill="#A0D5EF"/>
<path d="M227.009 57.2791H218.902V64.4388H227.009V57.2791Z" fill="#A0D5EF"/>
<path d="M227.009 64.4388H218.902V71.5989H227.009V64.4388Z" fill="#A0D5EF"/>
<path d="M332.407 121.718H324.299V128.877H332.407V121.718Z" fill="#A0D5EF"/>
<path d="M340.514 121.718H332.407V128.877H340.514V121.718Z" fill="#A0D5EF"/>
<path d="M251.332 121.718H243.225V128.877H251.332V121.718Z" fill="#A0D5EF"/>
<path d="M283.762 121.718H275.654V128.877H283.762V121.718Z" fill="#A0D5EF"/>
<path d="M275.654 121.718H267.547V128.877H275.654V121.718Z" fill="#A0D5EF"/>
<path d="M324.299 121.718H316.192V128.877H324.299V121.718Z" fill="#A0D5EF"/>
<path d="M259.439 121.718H251.332V128.877H259.439V121.718Z" fill="#A0D5EF"/>
<path d="M308.084 121.718H299.977V128.877H308.084V121.718Z" fill="#A0D5EF"/>
<path d="M316.192 121.718H308.084V128.877H316.192V121.718Z" fill="#A0D5EF"/>
<path d="M291.869 121.718H283.762V128.877H291.869V121.718Z" fill="#A0D5EF"/>
<path d="M299.977 121.718H291.869V128.877H299.977V121.718Z" fill="#A0D5EF"/>
<path d="M218.902 128.878H210.794V136.038H218.902V128.878Z" fill="#A0D5EF"/>
<path d="M227.009 128.878H218.902V136.038H227.009V128.878Z" fill="#A0D5EF"/>
<path d="M218.902 114.558H210.794V121.718H218.902V114.558Z" fill="#A0D5EF"/>
<path d="M218.902 93.0781H210.794V100.238H218.902V93.0781Z" fill="#BFE7FF"/>
<path d="M218.902 107.398H210.794V114.558H218.902V107.398Z" fill="#A0D5EF"/>
<path d="M218.902 100.238H210.794V107.398H218.902V100.238Z" fill="#BFE7FF"/>
<path d="M218.902 121.718H210.794V128.877H218.902V121.718Z" fill="#A0D5EF"/>
<path d="M243.224 128.878H235.117V136.038H243.224V128.878Z" fill="#A0D5EF"/>
<path d="M235.117 128.878H227.01V136.038H235.117V128.878Z" fill="#A0D5EF"/>
<path d="M218.902 50.1191H210.794V57.2791H218.902V50.1191Z" fill="#A0D5EF"/>
<path d="M218.902 78.7586H210.794V85.9187H218.902V78.7586Z" fill="#BFE7FF"/>
<path d="M218.902 85.9183H210.794V93.078H218.902V85.9183Z" fill="#BFE7FF"/>
<path d="M218.902 71.5986H210.794V78.7583H218.902V71.5986Z" fill="#A0D5EF"/>
<path d="M218.902 57.2791H210.794V64.4388H218.902V57.2791Z" fill="#A0D5EF"/>
<path d="M218.902 64.4388H210.794V71.5989H218.902V64.4388Z" fill="#A0D5EF"/>
<path d="M283.762 114.558H275.654V121.718H283.762V114.558Z" fill="#BFE7FF"/>
<path d="M251.332 114.558H243.225V121.718H251.332V114.558Z" fill="#A0D5EF"/>
<path d="M267.547 114.558H259.439V121.718H267.547V114.558Z" fill="#A0D5EF"/>
<path d="M291.869 114.558H283.762V121.718H291.869V114.558Z" fill="#BFE7FF"/>
<path d="M275.654 114.558H267.547V121.718H275.654V114.558Z" fill="#A0D5EF"/>
<path d="M316.192 114.558H308.084V121.718H316.192V114.558Z" fill="#A0D5EF"/>
<path d="M324.299 114.558H316.192V121.718H324.299V114.558Z" fill="#A0D5EF"/>
<path d="M308.084 114.558H299.977V121.718H308.084V114.558Z" fill="#BFE7FF"/>
<path d="M299.977 114.558H291.869V121.718H299.977V114.558Z" fill="#BFE7FF"/>
<path d="M235.117 57.2791H227.01V64.4388H235.117V57.2791Z" fill="#A0D5EF"/>
<path d="M235.117 85.9183H227.01V93.078H235.117V85.9183Z" fill="#BFE7FF"/>
<path d="M235.117 71.5986H227.01V78.7583H235.117V71.5986Z" fill="#BFE7FF"/>
<path d="M235.117 78.7586H227.01V85.9187H235.117V78.7586Z" fill="#BFE7FF"/>
<path d="M235.117 64.4388H227.01V71.5989H235.117V64.4388Z" fill="#BFE7FF"/>
<path d="M235.117 114.558H227.01V121.718H235.117V114.558Z" fill="#A0D5EF"/>
<path d="M243.224 114.558H235.117V121.718H243.224V114.558Z" fill="#A0D5EF"/>
<path d="M235.117 107.398H227.01V114.558H235.117V107.398Z" fill="#A0D5EF"/>
<path d="M235.117 100.238H227.01V107.398H235.117V100.238Z" fill="#A0D5EF"/>
<path d="M235.117 93.0781H227.01V100.238H235.117V93.0781Z" fill="#BFE7FF"/>
<path d="M259.439 114.558H251.332V121.718H259.439V114.558Z" fill="#A0D5EF"/>
<path d="M340.514 114.558H332.407V121.718H340.514V114.558Z" fill="#A0D5EF"/>
<path d="M332.407 114.558H324.299V121.718H332.407V114.558Z" fill="#A0D5EF"/>
<path d="M235.117 50.1191H227.01V57.2791H235.117V50.1191Z" fill="#A0D5EF"/>
<path d="M291.869 64.4388H283.762V71.5989H291.869V64.4388Z" fill="#BFE7FF"/>
<path d="M308.084 42.9594H299.977V50.1191H308.084V42.9594Z" fill="#A0D5EF"/>
<path d="M308.084 50.1191H299.977V57.2791H308.084V50.1191Z" fill="#BFE7FF"/>
<path d="M324.299 50.1191H316.192V57.2791H324.299V50.1191Z" fill="#BFE7FF"/>
<path d="M316.192 50.1191H308.084V57.2791H316.192V50.1191Z" fill="#BFE7FF"/>
<path d="M291.869 57.2791H283.762V64.4388H291.869V57.2791Z" fill="#E1F5FF"/>
<path d="M291.869 50.1191H283.762V57.2791H291.869V50.1191Z" fill="#BFE7FF"/>
<path d="M291.869 42.9594H283.762V50.1191H291.869V42.9594Z" fill="#A0D5EF"/>
<path d="M291.869 35.7993H283.762V42.959H291.869V35.7993Z" fill="#A0D5EF"/>
<path d="M299.977 57.2791H291.869V64.4388H299.977V57.2791Z" fill="#E1F5FF"/>
<path d="M308.084 57.2791H299.977V64.4388H308.084V57.2791Z" fill="#E1F5FF"/>
<path d="M299.977 50.1191H291.869V57.2791H299.977V50.1191Z" fill="#BFE7FF"/>
<path d="M299.977 42.9594H291.869V50.1191H299.977V42.9594Z" fill="#A0D5EF"/>
<path d="M324.299 57.2791H316.192V64.4388H324.299V57.2791Z" fill="#E1F5FF"/>
<path d="M316.192 57.2791H308.084V64.4388H316.192V57.2791Z" fill="#E1F5FF"/>
<path d="M299.977 35.7993H291.869V42.959H299.977V35.7993Z" fill="#A0D5EF"/>
<path d="M324.299 78.7586H316.192V85.9187H324.299V78.7586Z" fill="#E1F5FF"/>
<path d="M316.192 78.7586H308.084V85.9187H316.192V78.7586Z" fill="#E1F5FF"/>
<path d="M308.084 78.7586H299.977V85.9187H308.084V78.7586Z" fill="#BFE7FF"/>
<path d="M332.407 78.7586H324.299V85.9187H332.407V78.7586Z" fill="#BFE7FF"/>
<path d="M340.514 78.7586H332.407V85.9187H340.514V78.7586Z" fill="#BFE7FF"/>
<path d="M267.547 35.7993H259.439V42.959H267.547V35.7993Z" fill="#A0D5EF"/>
<path d="M299.977 78.7586H291.869V85.9187H299.977V78.7586Z" fill="#BFE7FF"/>
<path d="M308.084 85.9183H299.977V93.078H308.084V85.9183Z" fill="#BFE7FF"/>
<path d="M324.299 85.9183H316.192V93.078H324.299V85.9183Z" fill="#BFE7FF"/>
<path d="M316.192 85.9183H308.084V93.078H316.192V85.9183Z" fill="#BFE7FF"/>
<path d="M299.977 85.9183H291.869V93.078H299.977V85.9183Z" fill="#BFE7FF"/>
<path d="M332.407 85.9183H324.299V93.078H332.407V85.9183Z" fill="#BFE7FF"/>
<path d="M348.622 85.9183H340.514V93.078H348.622V85.9183Z" fill="#BFE7FF"/>
<path d="M291.869 85.9183H283.762V93.078H291.869V85.9183Z" fill="#BFE7FF"/>
<path d="M340.514 85.9183H332.407V93.078H340.514V85.9183Z" fill="#BFE7FF"/>
<path d="M267.547 78.7586H259.439V85.9187H267.547V78.7586Z" fill="#BFE7FF"/>
<path d="M267.547 50.1191H259.439V57.2791H267.547V50.1191Z" fill="#A0D5EF"/>
<path d="M267.547 57.2791H259.439V64.4388H267.547V57.2791Z" fill="#BFE7FF"/>
<path d="M267.547 42.9594H259.439V50.1191H267.547V42.9594Z" fill="#A0D5EF"/>
<path d="M267.547 64.4388H259.439V71.5989H267.547V64.4388Z" fill="#BFE7FF"/>
<path d="M275.654 85.9183H267.547V93.078H275.654V85.9183Z" fill="#BFE7FF"/>
<path d="M267.547 71.5986H259.439V78.7583H267.547V71.5986Z" fill="#BFE7FF"/>
<path d="M267.547 85.9183H259.439V93.078H267.547V85.9183Z" fill="#A0D5EF"/>
<path d="M283.762 85.9183H275.654V93.078H283.762V85.9183Z" fill="#BFE7FF"/>
<path d="M324.299 64.4388H316.192V71.5989H324.299V64.4388Z" fill="#E1F5FF"/>
<path d="M283.762 57.2791H275.654V64.4388H283.762V57.2791Z" fill="#BFE7FF"/>
<path d="M283.762 64.4388H275.654V71.5989H283.762V64.4388Z" fill="#BFE7FF"/>
<path d="M283.762 71.5986H275.654V78.7583H283.762V71.5986Z" fill="#BFE7FF"/>
<path d="M283.762 50.1191H275.654V57.2791H283.762V50.1191Z" fill="#BFE7FF"/>
<path d="M299.977 71.5986H291.869V78.7583H299.977V71.5986Z" fill="#BFE7FF"/>
<path d="M316.192 71.5986H308.084V78.7583H316.192V71.5986Z" fill="#E1F5FF"/>
<path d="M308.084 71.5986H299.977V78.7583H308.084V71.5986Z" fill="#BFE7FF"/>
<path d="M291.869 71.5986H283.762V78.7583H291.869V71.5986Z" fill="#BFE7FF"/>
<path d="M283.762 42.9594H275.654V50.1191H283.762V42.9594Z" fill="#A0D5EF"/>
<path d="M283.762 28.6395H275.654V35.7992H283.762V28.6395Z" fill="#A0D5EF"/>
<path d="M283.762 35.7993H275.654V42.959H283.762V35.7993Z" fill="#A0D5EF"/>
<path d="M299.977 64.4388H291.869V71.5989H299.977V64.4388Z" fill="#BFE7FF"/>
<path d="M316.192 64.4388H308.084V71.5989H316.192V64.4388Z" fill="#E1F5FF"/>
<path d="M332.407 64.4388H324.299V71.5989H332.407V64.4388Z" fill="#E1F5FF"/>
<path d="M308.084 64.4388H299.977V71.5989H308.084V64.4388Z" fill="#E1F5FF"/>
<path d="M291.869 78.7586H283.762V85.9187H291.869V78.7586Z" fill="#BFE7FF"/>
<path d="M324.299 71.5986H316.192V78.7583H324.299V71.5986Z" fill="#E1F5FF"/>
<path d="M275.654 42.9594H267.547V50.1191H275.654V42.9594Z" fill="#A0D5EF"/>
<path d="M275.654 57.2791H267.547V64.4388H275.654V57.2791Z" fill="#BFE7FF"/>
<path d="M275.654 50.1191H267.547V57.2791H275.654V50.1191Z" fill="#BFE7FF"/>
<path d="M275.654 35.7993H267.547V42.959H275.654V35.7993Z" fill="#A0D5EF"/>
<path d="M275.654 71.5986H267.547V78.7583H275.654V71.5986Z" fill="#BFE7FF"/>
<path d="M275.654 78.7586H267.547V85.9187H275.654V78.7586Z" fill="#BFE7FF"/>
<path d="M283.762 78.7586H275.654V85.9187H283.762V78.7586Z" fill="#E1F5FF"/>
<path d="M275.654 28.6395H267.547V35.7992H275.654V28.6395Z" fill="#A0D5EF"/>
<path d="M332.407 71.5986H324.299V78.7583H332.407V71.5986Z" fill="#E1F5FF"/>
<path d="M275.654 64.4388H267.547V71.5989H275.654V64.4388Z" fill="#BFE7FF"/>
<path d="M340.514 71.5986H332.407V78.7583H340.514V71.5986Z" fill="#BFE7FF"/>
<path d="M178.364 100.238H170.257V107.398H178.364V100.238Z" fill="#BFE7FF"/>
<path d="M178.364 78.7586H170.257V85.9187H178.364V78.7586Z" fill="#BFE7FF"/>
<path d="M178.364 85.9183H170.257V93.078H178.364V85.9183Z" fill="#BFE7FF"/>
<path d="M178.364 107.398H170.257V114.558H178.364V107.398Z" fill="#BFE7FF"/>
<path d="M178.364 93.0781H170.257V100.238H178.364V93.0781Z" fill="#BFE7FF"/>
<path d="M178.364 136.037H170.257V143.197H178.364V136.037Z" fill="#82C6E0"/>
<path d="M178.364 128.878H170.257V136.038H178.364V128.878Z" fill="#A0D5EF"/>
<path d="M178.364 7.16003H170.257V14.3197H178.364V7.16003Z" fill="#A0D5EF"/>
<path d="M178.364 114.558H170.257V121.718H178.364V114.558Z" fill="#BFE7FF"/>
<path d="M178.364 121.718H170.257V128.877H178.364V121.718Z" fill="#A0D5EF"/>
<path d="M178.364 28.6395H170.257V35.7992H178.364V28.6395Z" fill="#BFE7FF"/>
<path d="M178.364 21.4799H170.257V28.6396H178.364V21.4799Z" fill="#BFE7FF"/>
<path d="M178.364 14.3198H170.257V21.4795H178.364V14.3198Z" fill="#A0D5EF"/>
<path d="M178.364 35.7993H170.257V42.959H178.364V35.7993Z" fill="#BFE7FF"/>
<path d="M178.364 42.9594H170.257V50.1191H178.364V42.9594Z" fill="#BFE7FF"/>
<path d="M178.364 64.4388H170.257V71.5989H178.364V64.4388Z" fill="#BFE7FF"/>
<path d="M178.364 57.2791H170.257V64.4388H178.364V57.2791Z" fill="#BFE7FF"/>
<path d="M178.364 50.1191H170.257V57.2791H178.364V50.1191Z" fill="#BFE7FF"/>
<path d="M178.364 71.5986H170.257V78.7583H178.364V71.5986Z" fill="#BFE7FF"/>
<path d="M162.149 136.037H154.042V143.197H162.149V136.037Z" fill="#82C6E0"/>
<path d="M162.149 128.878H154.042V136.038H162.149V128.878Z" fill="#A0D5EF"/>
<path d="M162.149 114.558H154.042V121.718H162.149V114.558Z" fill="#BFE7FF"/>
<path d="M162.149 107.398H154.042V114.558H162.149V107.398Z" fill="#BFE7FF"/>
<path d="M162.149 121.718H154.042V128.877H162.149V121.718Z" fill="#A0D5EF"/>
<path d="M162.149 64.4388H154.042V71.5989H162.149V64.4388Z" fill="#BFE7FF"/>
<path d="M162.149 50.1191H154.042V57.2791H162.149V50.1191Z" fill="#BFE7FF"/>
<path d="M162.149 57.2791H154.042V64.4388H162.149V57.2791Z" fill="#BFE7FF"/>
<path d="M162.149 100.238H154.042V107.398H162.149V100.238Z" fill="#BFE7FF"/>
<path d="M162.149 42.9594H154.042V50.1191H162.149V42.9594Z" fill="#BFE7FF"/>
<path d="M162.149 35.7993H154.042V42.959H162.149V35.7993Z" fill="#BFE7FF"/>
<path d="M162.149 71.5986H154.042V78.7583H162.149V71.5986Z" fill="#BFE7FF"/>
<path d="M162.149 93.0781H154.042V100.238H162.149V93.0781Z" fill="#BFE7FF"/>
<path d="M162.149 78.7586H154.042V85.9187H162.149V78.7586Z" fill="#BFE7FF"/>
<path d="M162.149 85.9183H154.042V93.078H162.149V85.9183Z" fill="#BFE7FF"/>
<path d="M162.149 28.6395H154.042V35.7992H162.149V28.6395Z" fill="#BFE7FF"/>
<path d="M162.149 21.4799H154.042V28.6396H162.149V21.4799Z" fill="#BFE7FF"/>
<path d="M162.149 0H154.042V7.16007H162.149V0Z" fill="#A0D5EF"/>
<path d="M162.149 14.3198H154.042V21.4795H162.149V14.3198Z" fill="#BFE7FF"/>
<path d="M162.149 7.16003H154.042V14.3197H162.149V7.16003Z" fill="#BFE7FF"/>
<path d="M170.257 50.1191H162.15V57.2791H170.257V50.1191Z" fill="#BFE7FF"/>
<path d="M170.257 64.4388H162.15V71.5989H170.257V64.4388Z" fill="#BFE7FF"/>
<path d="M170.257 57.2791H162.15V64.4388H170.257V57.2791Z" fill="#BFE7FF"/>
<path d="M170.257 78.7586H162.15V85.9187H170.257V78.7586Z" fill="#BFE7FF"/>
<path d="M170.257 71.5986H162.15V78.7583H170.257V71.5986Z" fill="#BFE7FF"/>
<path d="M170.257 107.398H162.15V114.558H170.257V107.398Z" fill="#BFE7FF"/>
<path d="M170.257 85.9183H162.15V93.078H170.257V85.9183Z" fill="#BFE7FF"/>
<path d="M170.257 100.238H162.15V107.398H170.257V100.238Z" fill="#BFE7FF"/>
<path d="M170.257 93.0781H162.15V100.238H170.257V93.0781Z" fill="#BFE7FF"/>
<path d="M170.257 114.558H162.15V121.718H170.257V114.558Z" fill="#A0D5EF"/>
<path d="M170.257 7.16003H162.15V14.3197H170.257V7.16003Z" fill="#A0D5EF"/>
<path d="M170.257 35.7993H162.15V42.959H170.257V35.7993Z" fill="#BFE7FF"/>
<path d="M170.257 28.6395H162.15V35.7992H170.257V28.6395Z" fill="#BFE7FF"/>
<path d="M170.257 14.3198H162.15V21.4795H170.257V14.3198Z" fill="#BFE7FF"/>
<path d="M170.257 42.9594H162.15V50.1191H170.257V42.9594Z" fill="#BFE7FF"/>
<path d="M170.257 21.4799H162.15V28.6396H170.257V21.4799Z" fill="#BFE7FF"/>
<path d="M170.257 121.718H162.15V128.877H170.257V121.718Z" fill="#A0D5EF"/>
<path d="M170.257 136.037H162.15V143.197H170.257V136.037Z" fill="#82C6E0"/>
<path d="M170.257 128.878H162.15V136.038H170.257V128.878Z" fill="#A0D5EF"/>
<path d="M259.439 128.878H251.332V136.038H259.439V128.878Z" fill="#A0D5EF"/>
<path d="M202.687 143.197H194.579V150.357H202.687V143.197Z" fill="#82C6E0"/>
<path d="M202.687 136.037H194.579V143.197H202.687V136.037Z" fill="#82C6E0"/>
<path d="M202.687 128.878H194.579V136.038H202.687V128.878Z" fill="#A0D5EF"/>
<path d="M202.687 114.558H194.579V121.718H202.687V114.558Z" fill="#BFE7FF"/>
<path d="M202.687 121.718H194.579V128.877H202.687V121.718Z" fill="#BFE7FF"/>
<path d="M227.009 143.197H218.902V150.357H227.009V143.197Z" fill="#82C6E0"/>
<path d="M243.224 143.197H235.117V150.357H243.224V143.197Z" fill="#82C6E0"/>
<path d="M202.687 107.398H194.579V114.558H202.687V107.398Z" fill="#BFE7FF"/>
<path d="M210.794 143.197H202.687V150.357H210.794V143.197Z" fill="#82C6E0"/>
<path d="M218.902 143.197H210.794V150.357H218.902V143.197Z" fill="#82C6E0"/>
<path d="M235.117 143.197H227.01V150.357H235.117V143.197Z" fill="#82C6E0"/>
<path d="M202.687 50.1191H194.579V57.2791H202.687V50.1191Z" fill="#A0D5EF"/>
<path d="M202.687 57.2791H194.579V64.4388H202.687V57.2791Z" fill="#BFE7FF"/>
<path d="M202.687 42.9594H194.579V50.1191H202.687V42.9594Z" fill="#A0D5EF"/>
<path d="M202.687 64.4388H194.579V71.5989H202.687V64.4388Z" fill="#BFE7FF"/>
<path d="M202.687 78.7586H194.579V85.9187H202.687V78.7586Z" fill="#BFE7FF"/>
<path d="M202.687 93.0781H194.579V100.238H202.687V93.0781Z" fill="#BFE7FF"/>
<path d="M202.687 85.9183H194.579V93.078H202.687V85.9183Z" fill="#BFE7FF"/>
<path d="M202.687 100.238H194.579V107.398H202.687V100.238Z" fill="#BFE7FF"/>
<path d="M202.687 71.5986H194.579V78.7583H202.687V71.5986Z" fill="#BFE7FF"/>
<path d="M283.762 143.197H275.654V150.357H283.762V143.197Z" fill="#82C6E0"/>
<path d="M251.332 143.197H243.225V150.357H251.332V143.197Z" fill="#82C6E0"/>
<path d="M267.547 143.197H259.439V150.357H267.547V143.197Z" fill="#82C6E0"/>
<path d="M275.654 143.197H267.547V150.357H275.654V143.197Z" fill="#82C6E0"/>
<path d="M259.439 143.197H251.332V150.357H259.439V143.197Z" fill="#82C6E0"/>
<path d="M308.084 143.197H299.977V150.357H308.084V143.197Z" fill="#82C6E0"/>
<path d="M299.977 143.197H291.869V150.357H299.977V143.197Z" fill="#82C6E0"/>
<path d="M291.869 143.197H283.762V150.357H291.869V143.197Z" fill="#82C6E0"/>
<path d="M308.084 128.878H299.977V136.038H308.084V128.878Z" fill="#A0D5EF"/>
<path d="M275.654 128.878H267.547V136.038H275.654V128.878Z" fill="#A0D5EF"/>
<path d="M291.869 128.878H283.762V136.038H291.869V128.878Z" fill="#A0D5EF"/>
<path d="M332.407 128.878H324.299V136.038H332.407V128.878Z" fill="#A0D5EF"/>
<path d="M267.547 128.878H259.439V136.038H267.547V128.878Z" fill="#A0D5EF"/>
<path d="M283.762 128.878H275.654V136.038H283.762V128.878Z" fill="#A0D5EF"/>
<path d="M316.192 128.878H308.084V136.038H316.192V128.878Z" fill="#A0D5EF"/>
<path d="M299.977 128.878H291.869V136.038H299.977V128.878Z" fill="#A0D5EF"/>
<path d="M324.299 128.878H316.192V136.038H324.299V128.878Z" fill="#A0D5EF"/>
<path d="M210.794 85.9183H202.687V93.078H210.794V85.9183Z" fill="#BFE7FF"/>
<path d="M210.794 78.7586H202.687V85.9187H210.794V78.7586Z" fill="#BFE7FF"/>
<path d="M210.794 71.5986H202.687V78.7583H210.794V71.5986Z" fill="#A0D5EF"/>
<path d="M210.794 64.4388H202.687V71.5989H210.794V64.4388Z" fill="#A0D5EF"/>
<path d="M210.794 57.2791H202.687V64.4388H210.794V57.2791Z" fill="#A0D5EF"/>
<path d="M210.794 100.238H202.687V107.398H210.794V100.238Z" fill="#BFE7FF"/>
<path d="M210.794 107.398H202.687V114.558H210.794V107.398Z" fill="#BFE7FF"/>
<path d="M210.794 114.558H202.687V121.718H210.794V114.558Z" fill="#BFE7FF"/>
<path d="M210.794 50.1191H202.687V57.2791H210.794V50.1191Z" fill="#A0D5EF"/>
<path d="M210.794 93.0781H202.687V100.238H210.794V93.0781Z" fill="#BFE7FF"/>
<path d="M210.794 42.9594H202.687V50.1191H210.794V42.9594Z" fill="#A0D5EF"/>
<path d="M291.869 136.037H283.762V143.197H291.869V136.037Z" fill="#82C6E0"/>
<path d="M308.084 136.037H299.977V143.197H308.084V136.037Z" fill="#82C6E0"/>
<path d="M299.977 136.037H291.869V143.197H299.977V136.037Z" fill="#82C6E0"/>
<path d="M316.192 136.037H308.084V143.197H316.192V136.037Z" fill="#82C6E0"/>
<path d="M324.299 136.037H316.192V143.197H324.299V136.037Z" fill="#82C6E0"/>
<path d="M210.794 128.878H202.687V136.038H210.794V128.878Z" fill="#A0D5EF"/>
<path d="M283.762 136.037H275.654V143.197H283.762V136.037Z" fill="#82C6E0"/>
<path d="M227.009 136.037H218.902V143.197H227.009V136.037Z" fill="#A0D5EF"/>
<path d="M275.654 136.037H267.547V143.197H275.654V136.037Z" fill="#82C6E0"/>
<path d="M218.902 136.037H210.794V143.197H218.902V136.037Z" fill="#A0D5EF"/>
<path d="M210.794 136.037H202.687V143.197H210.794V136.037Z" fill="#82C6E0"/>
<path d="M235.117 136.037H227.01V143.197H235.117V136.037Z" fill="#A0D5EF"/>
<path d="M267.547 136.037H259.439V143.197H267.547V136.037Z" fill="#82C6E0"/>
<path d="M243.224 136.037H235.117V143.197H243.224V136.037Z" fill="#A0D5EF"/>
<path d="M259.439 136.037H251.332V143.197H259.439V136.037Z" fill="#82C6E0"/>
<path d="M251.332 136.037H243.225V143.197H251.332V136.037Z" fill="#82C6E0"/>
<path d="M210.794 121.718H202.687V128.877H210.794V121.718Z" fill="#A0D5EF"/>
<path d="M186.472 64.4388H178.365V71.5989H186.472V64.4388Z" fill="#BFE7FF"/>
<path d="M186.472 78.7586H178.365V85.9187H186.472V78.7586Z" fill="#BFE7FF"/>
<path d="M186.472 71.5986H178.365V78.7583H186.472V71.5986Z" fill="#BFE7FF"/>
<path d="M186.472 50.1191H178.365V57.2791H186.472V50.1191Z" fill="#BFE7FF"/>
<path d="M186.472 57.2791H178.365V64.4388H186.472V57.2791Z" fill="#BFE7FF"/>
<path d="M186.472 100.238H178.365V107.398H186.472V100.238Z" fill="#BFE7FF"/>
<path d="M186.472 114.558H178.365V121.718H186.472V114.558Z" fill="#BFE7FF"/>
<path d="M186.472 42.9594H178.365V50.1191H186.472V42.9594Z" fill="#BFE7FF"/>
<path d="M186.472 93.0781H178.365V100.238H186.472V93.0781Z" fill="#BFE7FF"/>
<path d="M186.472 85.9183H178.365V93.078H186.472V85.9183Z" fill="#BFE7FF"/>
<path d="M186.472 107.398H178.365V114.558H186.472V107.398Z" fill="#BFE7FF"/>
<path d="M186.472 35.7993H178.365V42.959H186.472V35.7993Z" fill="#BFE7FF"/>
<path d="M186.472 28.6395H178.365V35.7992H186.472V28.6395Z" fill="#A0D5EF"/>
<path d="M186.472 14.3198H178.365V21.4795H186.472V14.3198Z" fill="#A0D5EF"/>
<path d="M186.472 136.037H178.365V143.197H186.472V136.037Z" fill="#82C6E0"/>
<path d="M186.472 143.197H178.365V150.357H186.472V143.197Z" fill="#82C6E0"/>
<path d="M186.472 128.878H178.365V136.038H186.472V128.878Z" fill="#A0D5EF"/>
<path d="M186.472 121.718H178.365V128.877H186.472V121.718Z" fill="#A0D5EF"/>
<path d="M186.472 21.4799H178.365V28.6396H186.472V21.4799Z" fill="#A0D5EF"/>
<path d="M194.579 100.238H186.472V107.398H194.579V100.238Z" fill="#BFE7FF"/>
<path d="M194.579 128.878H186.472V136.038H194.579V128.878Z" fill="#A0D5EF"/>
<path d="M194.579 136.037H186.472V143.197H194.579V136.037Z" fill="#82C6E0"/>
<path d="M194.579 28.6395H186.472V35.7992H194.579V28.6395Z" fill="#A0D5EF"/>
<path d="M194.579 107.398H186.472V114.558H194.579V107.398Z" fill="#BFE7FF"/>
<path d="M194.579 121.718H186.472V128.877H194.579V121.718Z" fill="#BFE7FF"/>
<path d="M194.579 143.197H186.472V150.357H194.579V143.197Z" fill="#82C6E0"/>
<path d="M194.579 71.5986H186.472V78.7583H194.579V71.5986Z" fill="#BFE7FF"/>
<path d="M194.579 50.1191H186.472V57.2791H194.579V50.1191Z" fill="#BFE7FF"/>
<path d="M194.579 42.9594H186.472V50.1191H194.579V42.9594Z" fill="#BFE7FF"/>
<path d="M194.579 35.7993H186.472V42.959H194.579V35.7993Z" fill="#A0D5EF"/>
<path d="M194.579 93.0781H186.472V100.238H194.579V93.0781Z" fill="#BFE7FF"/>
<path d="M194.579 57.2791H186.472V64.4388H194.579V57.2791Z" fill="#BFE7FF"/>
<path d="M194.579 85.9183H186.472V93.078H194.579V85.9183Z" fill="#BFE7FF"/>
<path d="M194.579 78.7586H186.472V85.9187H194.579V78.7586Z" fill="#BFE7FF"/>
<path d="M194.579 64.4388H186.472V71.5989H194.579V64.4388Z" fill="#BFE7FF"/>
<path d="M194.579 114.558H186.472V121.718H194.579V114.558Z" fill="#BFE7FF"/>
</svg>
