<svg width="187" height="108" viewBox="0 0 187 108" fill="none" xmlns="http://www.w3.org/2000/svg">
<path d="M145.934 85.9183H137.827V93.078H145.934V85.9183Z" fill="#A0D5EF"/>
<path d="M145.934 78.7583H137.827V85.918H145.934V78.7583Z" fill="#A0D5EF"/>
<path d="M145.934 93.078H137.827V100.238H145.934V93.078Z" fill="#A0D5EF"/>
<path d="M145.934 71.5986H137.827V78.7583H145.934V71.5986Z" fill="#BFE7FF"/>
<path d="M81.0744 14.3198H72.967V21.4795H81.0744V14.3198Z" fill="#E1F5FF"/>
<path d="M105.397 14.3198H97.2896V21.4795H105.397V14.3198Z" fill="#BFE7FF"/>
<path d="M121.612 14.3198H113.505V21.4795H121.612V14.3198Z" fill="#BFE7FF"/>
<path d="M97.2895 14.3198H89.1821V21.4795H97.2895V14.3198Z" fill="#E1F5FF"/>
<path d="M113.505 14.3198H105.397V21.4795H113.505V14.3198Z" fill="#BFE7FF"/>
<path d="M89.1823 14.3198H81.075V21.4795H89.1823V14.3198Z" fill="#E1F5FF"/>
<path d="M72.9672 14.3198H64.8599V21.4795H72.9672V14.3198Z" fill="#E1F5FF"/>
<path d="M145.934 42.959H137.827V50.1187H145.934V42.959Z" fill="#A0D5EF"/>
<path d="M145.934 35.7993H137.827V42.959H145.934V35.7993Z" fill="#A0D5EF"/>
<path d="M145.934 50.119H137.827V57.2787H145.934V50.119Z" fill="#A0D5EF"/>
<path d="M145.934 64.4385H137.827V71.5982H145.934V64.4385Z" fill="#BFE7FF"/>
<path d="M145.934 57.2787H137.827V64.4385H145.934V57.2787Z" fill="#BFE7FF"/>
<path d="M129.72 14.3198H121.612V21.4795H129.72V14.3198Z" fill="#A0D5EF"/>
<path d="M145.934 28.6392H137.827V35.7989H145.934V28.6392Z" fill="#A0D5EF"/>
<path d="M137.827 14.3198H129.719V21.4795H137.827V14.3198Z" fill="#A0D5EF"/>
<path d="M145.934 14.3198H137.827V21.4795H145.934V14.3198Z" fill="#A0D5EF"/>
<path d="M145.934 21.4795H137.827V28.6392H145.934V21.4795Z" fill="#A0D5EF"/>
<path d="M154.042 93.078H145.935V100.238H154.042V93.078Z" fill="#82C6E0"/>
<path d="M154.042 85.9183H145.935V93.078H154.042V85.9183Z" fill="#A0D5EF"/>
<path d="M154.042 64.4385H145.935V71.5982H154.042V64.4385Z" fill="#BFE7FF"/>
<path d="M154.042 78.7583H145.935V85.918H154.042V78.7583Z" fill="#A0D5EF"/>
<path d="M154.042 57.2787H145.935V64.4385H154.042V57.2787Z" fill="#BFE7FF"/>
<path d="M154.042 50.119H145.935V57.2787H154.042V50.119Z" fill="#A0D5EF"/>
<path d="M154.042 71.5986H145.935V78.7583H154.042V71.5986Z" fill="#A0D5EF"/>
<path d="M105.397 7.15973H97.2896V14.3194H105.397V7.15973Z" fill="#E1F5FF"/>
<path d="M113.505 7.15973H105.397V14.3194H113.505V7.15973Z" fill="#BFE7FF"/>
<path d="M89.1823 7.15973H81.075V14.3194H89.1823V7.15973Z" fill="#E1F5FF"/>
<path d="M81.0744 7.15973H72.967V14.3194H81.0744V7.15973Z" fill="#E1F5FF"/>
<path d="M97.2895 7.15973H89.1821V14.3194H97.2895V7.15973Z" fill="#E1F5FF"/>
<path d="M154.042 21.4795H145.935V28.6392H154.042V21.4795Z" fill="#A0D5EF"/>
<path d="M154.042 42.959H145.935V50.1187H154.042V42.959Z" fill="#A0D5EF"/>
<path d="M154.042 28.6392H145.935V35.7989H154.042V28.6392Z" fill="#A0D5EF"/>
<path d="M154.042 35.7993H145.935V42.959H154.042V35.7993Z" fill="#A0D5EF"/>
<path d="M129.72 7.15973H121.612V14.3194H129.72V7.15973Z" fill="#BFE7FF"/>
<path d="M137.827 7.15973H129.719V14.3194H137.827V7.15973Z" fill="#A0D5EF"/>
<path d="M121.612 7.15973H113.505V14.3194H121.612V7.15973Z" fill="#BFE7FF"/>
<path d="M137.827 35.7993H129.719V42.959H137.827V35.7993Z" fill="#A0D5EF"/>
<path d="M137.827 50.119H129.719V57.2787H137.827V50.119Z" fill="#A0D5EF"/>
<path d="M137.827 42.959H129.719V50.1187H137.827V42.959Z" fill="#A0D5EF"/>
<path d="M137.827 64.4385H129.719V71.5982H137.827V64.4385Z" fill="#BFE7FF"/>
<path d="M137.827 21.4795H129.719V28.6392H137.827V21.4795Z" fill="#A0D5EF"/>
<path d="M137.827 71.5986H129.719V78.7583H137.827V71.5986Z" fill="#BFE7FF"/>
<path d="M129.72 21.4795H121.612V28.6392H129.72V21.4795Z" fill="#A0D5EF"/>
<path d="M137.827 28.6392H129.719V35.7989H137.827V28.6392Z" fill="#A0D5EF"/>
<path d="M137.827 57.2787H129.719V64.4385H137.827V57.2787Z" fill="#BFE7FF"/>
<path d="M137.827 93.078H129.719V100.238H137.827V93.078Z" fill="#82C6E0"/>
<path d="M137.827 85.9183H129.719V93.078H137.827V85.9183Z" fill="#A0D5EF"/>
<path d="M137.827 78.7583H129.719V85.918H137.827V78.7583Z" fill="#A0D5EF"/>
<path d="M121.612 21.4795H113.505V28.6392H121.612V21.4795Z" fill="#BFE7FF"/>
<path d="M113.505 21.4795H105.397V28.6392H113.505V21.4795Z" fill="#BFE7FF"/>
<path d="M89.1823 21.4795H81.075V28.6392H89.1823V21.4795Z" fill="#E1F5FF"/>
<path d="M81.0744 21.4795H72.967V28.6392H81.0744V21.4795Z" fill="#E1F5FF"/>
<path d="M97.2895 21.4795H89.1821V28.6392H97.2895V21.4795Z" fill="#BFE7FF"/>
<path d="M105.397 21.4795H97.2896V28.6392H105.397V21.4795Z" fill="#BFE7FF"/>
<path d="M72.9672 21.4795H64.8599V28.6392H72.9672V21.4795Z" fill="#E1F5FF"/>
<path d="M170.257 78.7583H162.15V85.918H170.257V78.7583Z" fill="#A0D5EF"/>
<path d="M170.257 71.5986H162.15V78.7583H170.257V71.5986Z" fill="#A0D5EF"/>
<path d="M170.257 93.078H162.15V100.238H170.257V93.078Z" fill="#82C6E0"/>
<path d="M170.257 50.119H162.15V57.2787H170.257V50.119Z" fill="#BFE7FF"/>
<path d="M170.257 42.959H162.15V50.1187H170.257V42.959Z" fill="#A0D5EF"/>
<path d="M170.257 64.4385H162.15V71.5982H170.257V64.4385Z" fill="#A0D5EF"/>
<path d="M170.257 57.2787H162.15V64.4385H170.257V57.2787Z" fill="#BFE7FF"/>
<path d="M170.257 85.9183H162.15V93.078H170.257V85.9183Z" fill="#82C6E0"/>
<path d="M170.257 35.7993H162.15V42.959H170.257V35.7993Z" fill="#A0D5EF"/>
<path d="M170.257 28.6392H162.15V35.7989H170.257V28.6392Z" fill="#A0D5EF"/>
<path d="M97.2895 0H89.1821V7.15971H97.2895V0Z" fill="#E1F5FF"/>
<path d="M162.149 93.078H154.042V100.238H162.149V93.078Z" fill="#82C6E0"/>
<path d="M162.149 85.9183H154.042V93.078H162.149V85.9183Z" fill="#82C6E0"/>
<path d="M113.505 0H105.397V7.15971H113.505V0Z" fill="#E1F5FF"/>
<path d="M121.612 0H113.505V7.15971H121.612V0Z" fill="#BFE7FF"/>
<path d="M105.397 0H97.2896V7.15971H105.397V0Z" fill="#E1F5FF"/>
<path d="M162.149 71.5986H154.042V78.7583H162.149V71.5986Z" fill="#A0D5EF"/>
<path d="M162.149 64.4385H154.042V71.5982H162.149V64.4385Z" fill="#A0D5EF"/>
<path d="M162.149 78.7583H154.042V85.918H162.149V78.7583Z" fill="#A0D5EF"/>
<path d="M162.149 57.2787H154.042V64.4385H162.149V57.2787Z" fill="#BFE7FF"/>
<path d="M162.149 35.7993H154.042V42.959H162.149V35.7993Z" fill="#A0D5EF"/>
<path d="M162.149 50.119H154.042V57.2787H162.149V50.119Z" fill="#BFE7FF"/>
<path d="M162.149 28.6392H154.042V35.7989H162.149V28.6392Z" fill="#A0D5EF"/>
<path d="M162.149 42.959H154.042V50.1187H162.149V42.959Z" fill="#A0D5EF"/>
<path d="M89.1823 85.9183H81.075V93.078H89.1823V85.9183Z" fill="#A0D5EF"/>
<path d="M89.1823 100.238H81.075V107.398H89.1823V100.238Z" fill="#82C6E0"/>
<path d="M89.1823 93.078H81.075V100.238H89.1823V93.078Z" fill="#82C6E0"/>
<path d="M89.1823 78.7583H81.075V85.918H89.1823V78.7583Z" fill="#A0D5EF"/>
<path d="M8.10732 64.4385H0V71.5982H8.10732V64.4385Z" fill="#BFE7FF"/>
<path d="M16.2147 64.4385H8.10742V71.5982H16.2147V64.4385Z" fill="#BFE7FF"/>
<path d="M24.3219 64.4385H16.2146V71.5982H24.3219V64.4385Z" fill="#BFE7FF"/>
<path d="M89.1823 64.4385H81.075V71.5982H89.1823V64.4385Z" fill="#BFE7FF"/>
<path d="M81.0744 64.4385H72.967V71.5982H81.0744V64.4385Z" fill="#BFE7FF"/>
<path d="M32.4298 64.4385H24.3225V71.5982H32.4298V64.4385Z" fill="#BFE7FF"/>
<path d="M89.1823 71.5986H81.075V78.7583H89.1823V71.5986Z" fill="#BFE7FF"/>
<path d="M72.9672 64.4385H64.8599V71.5982H72.9672V64.4385Z" fill="#BFE7FF"/>
<path d="M40.537 64.4385H32.4297V71.5982H40.537V64.4385Z" fill="#BFE7FF"/>
<path d="M64.8593 64.4385H56.752V71.5982H64.8593V64.4385Z" fill="#BFE7FF"/>
<path d="M48.6447 64.4385H40.5374V71.5982H48.6447V64.4385Z" fill="#BFE7FF"/>
<path d="M56.7521 64.4385H48.6448V71.5982H56.7521V64.4385Z" fill="#BFE7FF"/>
<path d="M24.3219 71.5986H16.2146V78.7583H24.3219V71.5986Z" fill="#A0D5EF"/>
<path d="M40.537 71.5986H32.4297V78.7583H40.537V71.5986Z" fill="#A0D5EF"/>
<path d="M56.7521 71.5986H48.6448V78.7583H56.7521V71.5986Z" fill="#BFE7FF"/>
<path d="M48.6447 71.5986H40.5374V78.7583H48.6447V71.5986Z" fill="#A0D5EF"/>
<path d="M8.10732 71.5986H0V78.7583H8.10732V71.5986Z" fill="#A0D5EF"/>
<path d="M64.8593 71.5986H56.752V78.7583H64.8593V71.5986Z" fill="#BFE7FF"/>
<path d="M81.0744 85.9183H72.967V93.078H81.0744V85.9183Z" fill="#A0D5EF"/>
<path d="M72.9672 71.5986H64.8599V78.7583H72.9672V71.5986Z" fill="#BFE7FF"/>
<path d="M81.0744 100.238H72.967V107.398H81.0744V100.238Z" fill="#82C6E0"/>
<path d="M81.0744 78.7583H72.967V85.918H81.0744V78.7583Z" fill="#A0D5EF"/>
<path d="M81.0744 71.5986H72.967V78.7583H81.0744V71.5986Z" fill="#BFE7FF"/>
<path d="M81.0744 93.078H72.967V100.238H81.0744V93.078Z" fill="#82C6E0"/>
<path d="M32.4298 71.5986H24.3225V78.7583H32.4298V71.5986Z" fill="#A0D5EF"/>
<path d="M40.537 57.2787H32.4297V64.4385H40.537V57.2787Z" fill="#BFE7FF"/>
<path d="M32.4298 57.2787H24.3225V64.4385H32.4298V57.2787Z" fill="#BFE7FF"/>
<path d="M48.6447 57.2787H40.5374V64.4385H48.6447V57.2787Z" fill="#E1F5FF"/>
<path d="M56.7521 57.2787H48.6448V64.4385H56.7521V57.2787Z" fill="#E1F5FF"/>
<path d="M24.3219 57.2787H16.2146V64.4385H24.3219V57.2787Z" fill="#BFE7FF"/>
<path d="M16.2147 57.2787H8.10742V64.4385H16.2147V57.2787Z" fill="#BFE7FF"/>
<path d="M64.8593 57.2787H56.752V64.4385H64.8593V57.2787Z" fill="#BFE7FF"/>
<path d="M8.10732 57.2787H0V64.4385H8.10732V57.2787Z" fill="#E1F5FF"/>
<path d="M97.2895 78.7583H89.1821V85.918H97.2895V78.7583Z" fill="#A0D5EF"/>
<path d="M97.2895 85.9183H89.1821V93.078H97.2895V85.9183Z" fill="#A0D5EF"/>
<path d="M97.2895 71.5986H89.1821V78.7583H97.2895V71.5986Z" fill="#BFE7FF"/>
<path d="M97.2895 93.078H89.1821V100.238H97.2895V93.078Z" fill="#82C6E0"/>
<path d="M72.9672 57.2787H64.8599V64.4385H72.9672V57.2787Z" fill="#BFE7FF"/>
<path d="M97.2895 64.4385H89.1821V71.5982H97.2895V64.4385Z" fill="#BFE7FF"/>
<path d="M81.0744 57.2787H72.967V64.4385H81.0744V57.2787Z" fill="#BFE7FF"/>
<path d="M89.1823 57.2787H81.075V64.4385H89.1823V57.2787Z" fill="#BFE7FF"/>
<path d="M97.2895 100.238H89.1821V107.398H97.2895V100.238Z" fill="#82C6E0"/>
<path d="M97.2895 57.2787H89.1821V64.4385H97.2895V57.2787Z" fill="#A0D5EF"/>
<path d="M16.2147 71.5986H8.10742V78.7583H16.2147V71.5986Z" fill="#A0D5EF"/>
<path d="M56.7521 93.078H48.6448V100.238H56.7521V93.078Z" fill="#82C6E0"/>
<path d="M16.2147 93.078H8.10742V100.238H16.2147V93.078Z" fill="#A0D5EF"/>
<path d="M24.3219 93.078H16.2146V100.238H24.3219V93.078Z" fill="#A0D5EF"/>
<path d="M48.6447 93.078H40.5374V100.238H48.6447V93.078Z" fill="#82C6E0"/>
<path d="M40.537 93.078H32.4297V100.238H40.537V93.078Z" fill="#A0D5EF"/>
<path d="M32.4298 93.078H24.3225V100.238H32.4298V93.078Z" fill="#A0D5EF"/>
<path d="M64.8593 100.238H56.752V107.398H64.8593V100.238Z" fill="#82C6E0"/>
<path d="M56.7521 100.238H48.6448V107.398H56.7521V100.238Z" fill="#82C6E0"/>
<path d="M32.4298 100.238H24.3225V107.398H32.4298V100.238Z" fill="#82C6E0"/>
<path d="M40.537 100.238H32.4297V107.398H40.537V100.238Z" fill="#82C6E0"/>
<path d="M48.6447 100.238H40.5374V107.398H48.6447V100.238Z" fill="#82C6E0"/>
<path d="M8.10732 78.7583H0V85.918H8.10732V78.7583Z" fill="#A0D5EF"/>
<path d="M48.6447 78.7583H40.5374V85.918H48.6447V78.7583Z" fill="#A0D5EF"/>
<path d="M56.7521 78.7583H48.6448V85.918H56.7521V78.7583Z" fill="#A0D5EF"/>
<path d="M64.8593 78.7583H56.752V85.918H64.8593V78.7583Z" fill="#A0D5EF"/>
<path d="M72.9672 78.7583H64.8599V85.918H72.9672V78.7583Z" fill="#A0D5EF"/>
<path d="M24.3219 78.7583H16.2146V85.918H24.3219V78.7583Z" fill="#A0D5EF"/>
<path d="M16.2147 78.7583H8.10742V85.918H16.2147V78.7583Z" fill="#A0D5EF"/>
<path d="M32.4298 78.7583H24.3225V85.918H32.4298V78.7583Z" fill="#A0D5EF"/>
<path d="M40.537 78.7583H32.4297V85.918H40.537V78.7583Z" fill="#A0D5EF"/>
<path d="M72.9672 85.9183H64.8599V93.078H72.9672V85.9183Z" fill="#A0D5EF"/>
<path d="M64.8593 93.078H56.752V100.238H64.8593V93.078Z" fill="#82C6E0"/>
<path d="M72.9672 93.078H64.8599V100.238H72.9672V93.078Z" fill="#82C6E0"/>
<path d="M64.8593 85.9183H56.752V93.078H64.8593V85.9183Z" fill="#A0D5EF"/>
<path d="M40.537 85.9183H32.4297V93.078H40.537V85.9183Z" fill="#A0D5EF"/>
<path d="M56.7521 85.9183H48.6448V93.078H56.7521V85.9183Z" fill="#A0D5EF"/>
<path d="M48.6447 85.9183H40.5374V93.078H48.6447V85.9183Z" fill="#A0D5EF"/>
<path d="M16.2147 85.9183H8.10742V93.078H16.2147V85.9183Z" fill="#A0D5EF"/>
<path d="M32.4298 85.9183H24.3225V93.078H32.4298V85.9183Z" fill="#A0D5EF"/>
<path d="M24.3219 85.9183H16.2146V93.078H24.3219V85.9183Z" fill="#A0D5EF"/>
<path d="M72.9672 100.238H64.8599V107.398H72.9672V100.238Z" fill="#82C6E0"/>
<path d="M40.537 35.7993H32.4297V42.959H40.537V35.7993Z" fill="#E1F5FF"/>
<path d="M121.612 42.959H113.505V50.1187H121.612V42.959Z" fill="#BFE7FF"/>
<path d="M113.505 35.7993H105.397V42.959H113.505V35.7993Z" fill="#BFE7FF"/>
<path d="M105.397 35.7993H97.2896V42.959H105.397V35.7993Z" fill="#BFE7FF"/>
<path d="M56.7521 35.7993H48.6448V42.959H56.7521V35.7993Z" fill="#E1F5FF"/>
<path d="M97.2895 35.7993H89.1821V42.959H97.2895V35.7993Z" fill="#BFE7FF"/>
<path d="M121.612 35.7993H113.505V42.959H121.612V35.7993Z" fill="#BFE7FF"/>
<path d="M72.9672 35.7993H64.8599V42.959H72.9672V35.7993Z" fill="#E1F5FF"/>
<path d="M89.1823 35.7993H81.075V42.959H89.1823V35.7993Z" fill="#BFE7FF"/>
<path d="M64.8593 35.7993H56.752V42.959H64.8593V35.7993Z" fill="#E1F5FF"/>
<path d="M81.0744 35.7993H72.967V42.959H81.0744V35.7993Z" fill="#E1F5FF"/>
<path d="M48.6447 35.7993H40.5374V42.959H48.6447V35.7993Z" fill="#E1F5FF"/>
<path d="M121.612 50.119H113.505V57.2787H121.612V50.119Z" fill="#BFE7FF"/>
<path d="M121.612 85.9183H113.505V93.078H121.612V85.9183Z" fill="#A0D5EF"/>
<path d="M121.612 93.078H113.505V100.238H121.612V93.078Z" fill="#82C6E0"/>
<path d="M121.612 64.4385H113.505V71.5982H121.612V64.4385Z" fill="#BFE7FF"/>
<path d="M121.612 57.2787H113.505V64.4385H121.612V57.2787Z" fill="#BFE7FF"/>
<path d="M121.612 78.7583H113.505V85.918H121.612V78.7583Z" fill="#A0D5EF"/>
<path d="M121.612 71.5986H113.505V78.7583H121.612V71.5986Z" fill="#BFE7FF"/>
<path d="M129.72 50.119H121.612V57.2787H129.72V50.119Z" fill="#BFE7FF"/>
<path d="M129.72 42.959H121.612V50.1187H129.72V42.959Z" fill="#BFE7FF"/>
<path d="M129.72 35.7993H121.612V42.959H129.72V35.7993Z" fill="#BFE7FF"/>
<path d="M129.72 57.2787H121.612V64.4385H129.72V57.2787Z" fill="#BFE7FF"/>
<path d="M113.505 28.6392H105.397V35.7989H113.505V28.6392Z" fill="#BFE7FF"/>
<path d="M129.72 71.5986H121.612V78.7583H129.72V71.5986Z" fill="#BFE7FF"/>
<path d="M129.72 28.6392H121.612V35.7989H129.72V28.6392Z" fill="#A0D5EF"/>
<path d="M105.397 28.6392H97.2896V35.7989H105.397V28.6392Z" fill="#BFE7FF"/>
<path d="M121.612 28.6392H113.505V35.7989H121.612V28.6392Z" fill="#BFE7FF"/>
<path d="M129.72 85.9183H121.612V93.078H129.72V85.9183Z" fill="#A0D5EF"/>
<path d="M97.2895 28.6392H89.1821V35.7989H97.2895V28.6392Z" fill="#BFE7FF"/>
<path d="M129.72 93.078H121.612V100.238H129.72V93.078Z" fill="#82C6E0"/>
<path d="M129.72 78.7583H121.612V85.918H129.72V78.7583Z" fill="#A0D5EF"/>
<path d="M89.1823 28.6392H81.075V35.7989H89.1823V28.6392Z" fill="#BFE7FF"/>
<path d="M64.8593 28.6392H56.752V35.7989H64.8593V28.6392Z" fill="#E1F5FF"/>
<path d="M72.9672 28.6392H64.8599V35.7989H72.9672V28.6392Z" fill="#E1F5FF"/>
<path d="M81.0744 28.6392H72.967V35.7989H81.0744V28.6392Z" fill="#E1F5FF"/>
<path d="M129.72 64.4385H121.612V71.5982H129.72V64.4385Z" fill="#BFE7FF"/>
<path d="M56.7521 50.119H48.6448V57.2787H56.7521V50.119Z" fill="#E1F5FF"/>
<path d="M48.6447 50.119H40.5374V57.2787H48.6447V50.119Z" fill="#E1F5FF"/>
<path d="M64.8593 50.119H56.752V57.2787H64.8593V50.119Z" fill="#E1F5FF"/>
<path d="M40.537 50.119H32.4297V57.2787H40.537V50.119Z" fill="#E1F5FF"/>
<path d="M32.4298 50.119H24.3225V57.2787H32.4298V50.119Z" fill="#E1F5FF"/>
<path d="M16.2147 50.119H8.10742V57.2787H16.2147V50.119Z" fill="#E1F5FF"/>
<path d="M24.3219 50.119H16.2146V57.2787H24.3219V50.119Z" fill="#E1F5FF"/>
<path d="M72.9672 50.119H64.8599V57.2787H72.9672V50.119Z" fill="#BFE7FF"/>
<path d="M105.397 78.7583H97.2896V85.918H105.397V78.7583Z" fill="#A0D5EF"/>
<path d="M81.0744 50.119H72.967V57.2787H81.0744V50.119Z" fill="#BFE7FF"/>
<path d="M105.397 64.4385H97.2896V71.5982H105.397V64.4385Z" fill="#BFE7FF"/>
<path d="M105.397 71.5986H97.2896V78.7583H105.397V71.5986Z" fill="#BFE7FF"/>
<path d="M105.397 93.078H97.2896V100.238H105.397V93.078Z" fill="#82C6E0"/>
<path d="M105.397 85.9183H97.2896V93.078H105.397V85.9183Z" fill="#A0D5EF"/>
<path d="M97.2895 50.119H89.1821V57.2787H97.2895V50.119Z" fill="#BFE7FF"/>
<path d="M89.1823 50.119H81.075V57.2787H89.1823V50.119Z" fill="#BFE7FF"/>
<path d="M105.397 50.119H97.2896V57.2787H105.397V50.119Z" fill="#BFE7FF"/>
<path d="M105.397 100.238H97.2896V107.398H105.397V100.238Z" fill="#82C6E0"/>
<path d="M105.397 57.2787H97.2896V64.4385H105.397V57.2787Z" fill="#BFE7FF"/>
<path d="M72.9672 42.959H64.8599V50.1187H72.9672V42.959Z" fill="#E1F5FF"/>
<path d="M40.537 42.959H32.4297V50.1187H40.537V42.959Z" fill="#E1F5FF"/>
<path d="M48.6447 42.959H40.5374V50.1187H48.6447V42.959Z" fill="#E1F5FF"/>
<path d="M64.8593 42.959H56.752V50.1187H64.8593V42.959Z" fill="#E1F5FF"/>
<path d="M56.7521 42.959H48.6448V50.1187H56.7521V42.959Z" fill="#E1F5FF"/>
<path d="M32.4298 42.959H24.3225V50.1187H32.4298V42.959Z" fill="#E1F5FF"/>
<path d="M24.3219 42.959H16.2146V50.1187H24.3219V42.959Z" fill="#E1F5FF"/>
<path d="M97.2895 42.959H89.1821V50.1187H97.2895V42.959Z" fill="#BFE7FF"/>
<path d="M113.505 78.7583H105.397V85.918H113.505V78.7583Z" fill="#A0D5EF"/>
<path d="M113.505 57.2787H105.397V64.4385H113.505V57.2787Z" fill="#BFE7FF"/>
<path d="M113.505 71.5986H105.397V78.7583H113.505V71.5986Z" fill="#BFE7FF"/>
<path d="M113.505 50.119H105.397V57.2787H113.505V50.119Z" fill="#BFE7FF"/>
<path d="M113.505 64.4385H105.397V71.5982H113.505V64.4385Z" fill="#BFE7FF"/>
<path d="M113.505 42.959H105.397V50.1187H113.505V42.959Z" fill="#BFE7FF"/>
<path d="M89.1823 42.959H81.075V50.1187H89.1823V42.959Z" fill="#BFE7FF"/>
<path d="M81.0744 42.959H72.967V50.1187H81.0744V42.959Z" fill="#BFE7FF"/>
<path d="M105.397 42.959H97.2896V50.1187H105.397V42.959Z" fill="#BFE7FF"/>
<path d="M113.505 85.9183H105.397V93.078H113.505V85.9183Z" fill="#A0D5EF"/>
<path d="M113.505 93.078H105.397V100.238H113.505V93.078Z" fill="#82C6E0"/>
<path d="M186.472 78.7583H178.365V85.918H186.472V78.7583Z" fill="#A0D5EF"/>
<path d="M186.472 71.5986H178.365V78.7583H186.472V71.5986Z" fill="#A0D5EF"/>
<path d="M186.472 50.119H178.365V57.2787H186.472V50.119Z" fill="#BFE7FF"/>
<path d="M186.472 42.959H178.365V50.1187H186.472V42.959Z" fill="#A0D5EF"/>
<path d="M186.472 57.2787H178.365V64.4385H186.472V57.2787Z" fill="#A0D5EF"/>
<path d="M186.472 64.4385H178.365V71.5982H186.472V64.4385Z" fill="#A0D5EF"/>
<path d="M178.364 85.9183H170.257V93.078H178.364V85.9183Z" fill="#82C6E0"/>
<path d="M178.364 42.959H170.257V50.1187H178.364V42.959Z" fill="#A0D5EF"/>
<path d="M178.364 64.4385H170.257V71.5982H178.364V64.4385Z" fill="#A0D5EF"/>
<path d="M178.364 71.5986H170.257V78.7583H178.364V71.5986Z" fill="#A0D5EF"/>
<path d="M178.364 50.119H170.257V57.2787H178.364V50.119Z" fill="#BFE7FF"/>
<path d="M178.364 78.7583H170.257V85.918H178.364V78.7583Z" fill="#A0D5EF"/>
<path d="M178.364 35.7993H170.257V42.959H178.364V35.7993Z" fill="#A0D5EF"/>
<path d="M178.364 57.2787H170.257V64.4385H178.364V57.2787Z" fill="#A0D5EF"/>
</svg>
